<?xml version="1.0" encoding="UTF-8"?>
<svg id="uuid-aadaf6bd-2747-43e4-9dab-197809d68e2f" data-name="Content" xmlns="http://www.w3.org/2000/svg" viewBox="0 0 128 128">
  <path d="M93.87,62.81c-1.75,0-3.2,1.45-3.2,3.2v17.08c0,7.65-6.24,13.88-13.88,13.88h-34.17c-7.65,0-13.88-6.24-13.88-13.88v-34.17c0-7.65,6.24-13.88,13.88-13.88h17.08c1.75,0,3.2-1.45,3.2-3.2s-1.45-3.2-3.2-3.2h-17.08c-11.19,0-20.29,9.1-20.29,20.29v34.17c0,11.19,9.1,20.29,20.29,20.29h34.17c11.19,0,20.29-9.1,20.29-20.29v-17.08c0-1.75-1.45-3.2-3.2-3.2Z" style="stroke: #fff; stroke-miterlimit: 10; stroke-width: 2.5px;"/>
  <path d="M58.63,48.93c0-1.75-1.45-3.2-3.2-3.2h-12.81c-1.75,0-3.2,1.45-3.2,3.2s1.45,3.2,3.2,3.2h12.81c1.75,0,3.2-1.45,3.2-3.2Z" style="stroke: #fff; stroke-miterlimit: 10; stroke-width: 2.5px;"/>
  <path d="M42.61,69.21h4.27c1.75,0,3.2-1.45,3.2-3.2s-1.45-3.2-3.2-3.2h-4.27c-1.75,0-3.2,1.45-3.2,3.2s1.45,3.2,3.2,3.2Z" style="stroke: #fff; stroke-miterlimit: 10; stroke-width: 2.5px;"/>
  <path d="M42.61,86.3h34.17c1.75,0,3.2-1.45,3.2-3.2s-1.45-3.2-3.2-3.2h-34.17c-1.75,0-3.2,1.45-3.2,3.2s1.45,3.2,3.2,3.2Z" style="stroke: #fff; stroke-miterlimit: 10; stroke-width: 2.5px;"/>
  <path d="M102.03,28.25c-4.57-4.57-11.75-4.87-15.93-.68l-25.2,25.2c-1.54,1.54-2.56,3.55-2.86,5.81l-1.67,11.7c-.13.98.21,2.01.9,2.73.6.6,1.41.94,2.26.94h.47l11.7-1.67c2.22-.3,4.23-1.32,5.81-2.86l25.2-25.2c2.09-2.09,3.12-4.95,2.95-8.03-.17-2.95-1.45-5.77-3.63-7.9v-.04ZM93.44,30.99c1.41,0,2.86.6,4.06,1.79,1.07,1.07,1.71,2.39,1.75,3.76.09,1.24-.3,2.31-1.07,3.12l-.43.43-7.56-7.56.43-.43c.73-.73,1.75-1.11,2.82-1.11ZM72.98,64.81c-.56.56-1.32.94-2.18,1.07h0l-7.47,1.07,1.07-7.47c.13-.85.47-1.62,1.07-2.18l20.25-20.25,7.56,7.56-20.25,20.25-.04-.04Z" style="stroke: #fff; stroke-miterlimit: 10; stroke-width: 2.5px;"/>
</svg>