<?xml version="1.0" encoding="UTF-8"?>
<svg id="uuid-bc6bdf66-cda1-46c0-8a20-a56e76a57d76" data-name="Content" xmlns="http://www.w3.org/2000/svg" viewBox="0 0 128 128">
  <path d="M17.01,19.57h-8.47l-1.62,3.91H2.6L10.73,5.23h4.17l8.16,18.25h-4.43l-1.62-3.91ZM15.68,16.37l-2.89-6.99-2.89,6.99h5.79Z" style="fill: #2ea186;"/>
  <path d="M21.52,48.47c0,3.15-2.5,4.98-7.3,4.98H4.78v-18.25h8.92c4.56,0,6.91,1.9,6.91,4.74,0,1.82-.94,3.23-2.42,4.01,2.03.65,3.34,2.22,3.34,4.51ZM8.98,38.38v4.3h4.2c2.06,0,3.18-.73,3.18-2.16s-1.12-2.14-3.18-2.14h-4.2ZM17.27,48.03c0-1.54-1.17-2.27-3.36-2.27h-4.93v4.51h4.93c2.19,0,3.36-.68,3.36-2.24Z" style="fill: #2ea186;"/>
  <path d="M4.06,74.3c0-5.5,4.22-9.44,9.91-9.44,3.15,0,5.79,1.15,7.51,3.23l-2.71,2.5c-1.23-1.41-2.76-2.14-4.59-2.14-3.42,0-5.84,2.4-5.84,5.84s2.42,5.84,5.84,5.84c1.82,0,3.36-.73,4.59-2.16l2.71,2.5c-1.72,2.11-4.35,3.26-7.53,3.26-5.66,0-9.88-3.94-9.88-9.44Z" style="fill: #2ea186;"/>
  <g>
    <rect x="31.14" y="10.44" width="13.6" height="2.98" rx=".5" ry=".5" style="fill: #2ea186;"/>
    <rect x="31.14" y="15.11" width="13.6" height="2.98" rx=".5" ry=".5" style="fill: #2ea186;"/>
  </g>
  <g>
    <rect x="31.14" y="40.62" width="13.6" height="2.98" rx=".5" ry=".5" style="fill: #2ea186;"/>
    <rect x="31.14" y="45.3" width="13.6" height="2.98" rx=".5" ry=".5" style="fill: #2ea186;"/>
  </g>
  <g>
    <rect x="31.14" y="70.8" width="13.6" height="2.98" rx=".5" ry=".5" style="fill: #2ea186;"/>
    <rect x="31.14" y="75.48" width="13.6" height="2.98" rx=".5" ry=".5" style="fill: #2ea186;"/>
  </g>
  <g>
    <circle cx="52.29" cy="21.81" r="1.38" style="fill: #2ea186;"/>
    <circle cx="56.32" cy="21.81" r="1.38" style="fill: #2ea186;"/>
    <circle cx="60.36" cy="21.81" r="1.38" style="fill: #2ea186;"/>
    <circle cx="64.4" cy="21.81" r="1.38" style="fill: #2ea186;"/>
    <circle cx="68.44" cy="21.81" r="1.38" style="fill: #2ea186;"/>
    <circle cx="72.48" cy="21.81" r="1.38" style="fill: #2ea186;"/>
  </g>
  <g>
    <circle cx="52.29" cy="51.57" r="1.38" style="fill: #2ea186;"/>
    <circle cx="56.32" cy="51.57" r="1.38" style="fill: #2ea186;"/>
    <circle cx="60.36" cy="51.57" r="1.38" style="fill: #2ea186;"/>
    <circle cx="64.4" cy="51.57" r="1.38" style="fill: #2ea186;"/>
    <circle cx="68.44" cy="51.57" r="1.38" style="fill: #2ea186;"/>
    <circle cx="72.48" cy="51.57" r="1.38" style="fill: #2ea186;"/>
  </g>
  <g>
    <circle cx="52.29" cy="81.11" r="1.38" style="fill: #2ea186;"/>
    <circle cx="56.32" cy="81.11" r="1.38" style="fill: #2ea186;"/>
    <circle cx="60.36" cy="81.11" r="1.38" style="fill: #2ea186;"/>
    <circle cx="64.4" cy="81.11" r="1.38" style="fill: #2ea186;"/>
    <circle cx="68.44" cy="81.11" r="1.38" style="fill: #2ea186;"/>
    <circle cx="72.48" cy="81.11" r="1.38" style="fill: #2ea186;"/>
  </g>
</svg>