<?xml version="1.0" encoding="UTF-8"?>
<svg id="uuid-6cc5e8ac-6b21-4ab7-a27d-21177d13a703" data-name="Content" xmlns="http://www.w3.org/2000/svg" viewBox="0 0 128 128">
  <path d="M63.94,24c-2.1.03-3.78,1.76-3.75,3.86v2.13c-15.83,1.76-28.44,14.38-30.21,30.21h-2.13c-2.1-.03-3.83,1.65-3.86,3.75-.03,2.1,1.65,3.83,3.75,3.86.04,0,.07,0,.11,0h2.13c1.76,15.83,14.38,28.44,30.21,30.21v2.13c-.03,2.1,1.65,3.83,3.75,3.86,2.1.03,3.83-1.65,3.86-3.75,0-.04,0-.07,0-.11v-2.13c15.83-1.76,28.44-14.38,30.21-30.21h2.13c2.1.03,3.83-1.65,3.86-3.75.03-2.1-1.65-3.83-3.75-3.86-.04,0-.07,0-.11,0h-2.13c-1.76-15.83-14.38-28.44-30.21-30.21v-2.13c.03-2.1-1.65-3.83-3.75-3.86-.04,0-.07,0-.11,0ZM60.2,37.67v1.31c-.03,2.1,1.65,3.83,3.75,3.86,2.1.03,3.83-1.65,3.86-3.75,0-.04,0-.07,0-.11v-1.31c11.69,1.66,20.86,10.84,22.53,22.53h-1.31c-2.1-.03-3.83,1.65-3.86,3.75-.03,2.1,1.65,3.83,3.75,3.86.04,0,.07,0,.11,0h1.31c-1.66,11.69-10.84,20.86-22.53,22.53v-1.31c.03-2.1-1.65-3.83-3.75-3.86-.04,0-.07,0-.11,0-2.1.03-3.78,1.76-3.75,3.86h0v1.31c-11.69-1.66-20.86-10.84-22.53-22.53h1.31c2.1.03,3.83-1.65,3.86-3.75.03-2.1-1.65-3.83-3.75-3.86-.04,0-.07,0-.11,0h-1.31c1.66-11.69,10.84-20.86,22.53-22.53ZM64,56.39c-4.2,0-7.61,3.41-7.61,7.61s3.41,7.61,7.61,7.61,7.61-3.41,7.61-7.61-3.41-7.61-7.61-7.61Z" style="stroke: #fff; stroke-miterlimit: 10; stroke-width: 3.5px;"/>
</svg>