<?xml version="1.0" encoding="UTF-8"?>
<svg id="uuid-17734875-5625-4c03-885d-28e44cafc67a" data-name="Content" xmlns="http://www.w3.org/2000/svg" viewBox="0 0 128 128">
  <path d="M56.61,58.2h-16.11c-1.62,0-2.93.65-2.93,1.46v16.07c0,.81,1.31,1.46,2.93,1.46h16.11c1.62,0,2.93-.65,2.93-1.46v-16.07c0-.81-1.31-1.46-2.93-1.46Z" style="fill: #00938f;"/>
  <path d="M37.56,74.27c0,1.62,1.31,2.93,2.93,2.93h16.11c1.62,0,2.93-1.31,2.93-2.93v-7.56h-21.97v7.56Z" style="fill: #00a3a4;"/>
  <path d="M23.69,73.54h49.72c1.03,0,1.86.84,1.86,1.86v.41c0,1.03-.84,1.86-1.86,1.86H23.69c-1.03,0-1.86-.84-1.86-1.86v-.41c0-1.03.84-1.86,1.86-1.86Z" style="fill: #00a3a4;"/>
  <path d="M90.9,1.59H6.2c-1.85,0-3.35,1.41-3.35,3.14v54.95c0,1.73,1.5,3.14,3.35,3.14h84.7c1.85,0,3.35-1.41,3.35-3.14V4.73c0-1.73-1.5-3.14-3.35-3.14ZM91.06,55.95c0,1.04-.85,1.89-1.89,1.89H7.93c-1.04,0-1.89-.85-1.89-1.89V6.7c0-1.04.85-1.89,1.89-1.89h81.24c1.04,0,1.89.85,1.89,1.89v49.25Z" style="fill: #00a3a4;"/>
  <rect x="26.94" y="57.84" width="23.51" height="0" style="fill: #fff; opacity: .19;"/>
  <rect x="13.33" y="57.84" width="6.19" height="0" style="fill: #fff; opacity: .19;"/>
  <polygon points="34.01 24.83 39.79 28.17 39.66 28.86 38.55 34.8 43.73 36.87 40.2 46.19 45.8 44.54 44.76 39.77 48.28 37.28 55.95 42.67 57.55 41.67 60.92 39.56 75.01 44.33 61.75 37.7 62.99 34.59 60.9 34.03 56.78 32.93 60.3 29.83 55.95 27.55 59.26 24.85 57.81 22.99 60.51 18.43 65.89 16.57 71.69 7.45 64.86 15.95 60.09 17.19 53.46 24.44 47.25 21.54 41.65 26.51 40.83 26.18 34.52 23.66 31.3 22.37 29.1 21.9 14.93 18.85 28.89 22.38 30.47 22.78 34.01 24.83" style="fill: none;"/>
  <polygon points="39.79 28.17 34.01 24.83 19.52 57.84 26.94 57.84 39.66 28.86 39.79 28.17" style="fill: #fff; opacity: .2;"/>
  <polygon points="43.79 19.44 44.24 18.42 43.52 18.95 43.79 19.44" style="fill: #fff; opacity: .2;"/>
  <path d="M42.79,19.05l1.82-1.48.59-1.35c-.91-1.3-3.21-4.59-4.57-6.51l-6.12,13.94,6.32,2.53,2.7-6.16-.75-.97Z" style="fill: #fff; opacity: .2;"/>
  <path d="M89.17,4.81H7.93c-1.04,0-1.89.85-1.89,1.89v49.25c0,1.04.85,1.89,1.89,1.89h5.4l15.56-35.46-13.96-3.54,14.17,3.05,7.5-17.08h6.19l-2.12,4.83c1.33,1.6,3.57,4.23,4.89,5.78l4.66-10.61h23.51l-9.24,21.06c.12.3.25.49.38.43.41-.21,9.32-2.18,9.32-2.18l-9.94,3-.13-.4-3.2,7.3,2.09.56-1.24,3.11,13.26,6.63-14.09-4.76-3.37,2.11-1.16,2.65c-.07,1.32-.17,3.01-.23,3.32-.1.52,3.31,0,3.31,0,0,0,1.24,4.14,1.45,6.01.21,1.86-1.97-5.08-1.97-5.08h-3.21v-2.79l-5.29,12.05h38.72c1.04,0,1.89-.85,1.89-1.89V6.7c0-1.04-.85-1.89-1.89-1.89Z" style="fill: #fff; opacity: .2;"/>
  <path d="M55.74,43.09l.73-.41s-.03.74-.08,1.65l1.16-2.65-1.6,1-7.67-5.39-3.52,2.49,1.04,4.76-5.59,1.66,3.52-9.32-5.18-2.07,1.11-5.94-12.72,28.98h23.51l5.29-12.05v-2.7Z" style="fill: #fff; opacity: .2;"/>
  <path d="M55.74,43.09l.73-.41s-.03.74-.08,1.65l1.16-2.65-1.6,1-7.67-5.39-3.52,2.49,1.04,4.76-5.59,1.66,3.52-9.32-5.18-2.07,1.11-5.94-12.72,28.98h23.51l5.29-12.05v-2.7Z" style="fill: #fff; opacity: .19;"/>
  <path d="M46,19.93s-.12-.18-.33-.48l-.51,1.16.84-.69Z" style="fill: #fff; opacity: .2;"/>
  <path d="M46,19.93s-.12-.18-.33-.48l-.51,1.16.84-.69Z" style="fill: #fff; opacity: .19;"/>
  <path d="M44.24,18.42l-.45,1.02,1.8,3.24-2.05-2.66-2.7,6.16.82.33,5.59-4.97,6.22,2.9,6.63-7.25,4.76-1.24,6.84-8.49-5.8,9.12-5.39,1.86-2.69,4.56,1.45,1.86-3.31,2.69,4.35,2.28-3.52,3.11,4.12,1.1,3.2-7.3-.8-2.4-3.52.31c.73-.1,4.14-.83,4.14-.83,0,0,.26,1.34.56,2.06l9.24-21.06h-23.51l-4.66,10.61c.64.75,1.07,1.25,1.07,1.25l-2.38,1.75Z" style="fill: #fff; opacity: .2;"/>
  <path d="M44.24,18.42l-.45,1.02,1.8,3.24-2.05-2.66-2.7,6.16.82.33,5.59-4.97,6.22,2.9,6.63-7.25,4.76-1.24,6.84-8.49-5.8,9.12-5.39,1.86-2.69,4.56,1.45,1.86-3.31,2.69,4.35,2.28-3.52,3.11,4.12,1.1,3.2-7.3-.8-2.4-3.52.31c.73-.1,4.14-.83,4.14-.83,0,0,.26,1.34.56,2.06l9.24-21.06h-23.51l-4.66,10.61c.64.75,1.07,1.25,1.07,1.25l-2.38,1.75Z" style="fill: #fff; opacity: .19;"/>
  <path d="M34.52,23.66l6.12-13.94c-.24-.34-.46-.64-.63-.88-.24-.3-.4-.5-.42-.56-.04-.07.13.15.42.56.18.22.4.49.66.81l2.12-4.83h-6.19l-7.5,17.08,2.19.47,3.22,1.29Z" style="fill: #fff; opacity: .2;"/>
  <path d="M34.52,23.66l6.12-13.94c-.24-.34-.46-.64-.63-.88-.24-.3-.4-.5-.42-.56-.04-.07.13.15.42.56.18.22.4.49.66.81l2.12-4.83h-6.19l-7.5,17.08,2.19.47,3.22,1.29Z" style="fill: #fff; opacity: .19;"/>
  <polygon points="30.47 22.78 28.89 22.38 13.33 57.84 19.52 57.84 34.01 24.83 30.47 22.78" style="fill: #fff; opacity: .2;"/>
  <polygon points="30.47 22.78 28.89 22.38 13.33 57.84 19.52 57.84 34.01 24.83 30.47 22.78" style="fill: #fff; opacity: .19;"/>
</svg>