<?xml version="1.0" encoding="UTF-8"?>
<svg id="uuid-4fb748b7-3ca7-4758-ab4b-26e5f97737c4" data-name="Content" xmlns="http://www.w3.org/2000/svg" viewBox="0 0 128 128">
  <path d="M99.8,91.08c-16.7,16.7-43.88,16.7-60.58,0-16.7-16.7-16.7-43.88,0-60.58,6.88-6.88,16-11.24,25.7-12.28,1.43-.15,2.84.46,3.7,1.61.86,1.16,1.05,2.68.5,4.01-4.47,10.73-2.05,22.97,6.16,31.18s20.45,10.63,31.18,6.16c1.33-.55,2.85-.36,4.01.5,1.15.86,1.77,2.27,1.61,3.7-1.04,9.69-5.4,18.82-12.28,25.7ZM44.99,36.27c-13.52,13.52-13.52,35.52,0,49.04,13.52,13.52,35.52,13.52,49.04,0,4.11-4.11,7.05-9.04,8.67-14.48-11.91,2.41-24.36-1.21-33.19-10.04s-12.45-21.28-10.04-33.19c-5.45,1.62-10.37,4.56-14.48,8.67Z" style="stroke: #fff; stroke-miterlimit: 10; stroke-width: 3.5px;"/>
</svg>