<?xml version="1.0" encoding="UTF-8"?>
<svg id="uuid-9bff542d-db4f-440a-b214-e77eae2f0ecc" data-name="Content" xmlns="http://www.w3.org/2000/svg" viewBox="0 0 128 128">
  <path d="M94.98,61.54l-12.19-12.11c-1.36-1.35-3.55-1.34-4.89.02-1.35,1.36-1.34,3.55.02,4.89l6.24,6.19h-26.29c-1.91,0-3.46,1.55-3.46,3.46s1.55,3.46,3.46,3.46h26.29l-6.24,6.19c-1.36,1.35-1.36,3.54-.02,4.89.68.68,1.56,1.02,2.45,1.02s1.76-.33,2.44-1l12.19-12.11c.65-.65,1.02-1.53,1.02-2.45s-.37-1.81-1.02-2.46Z" style="fill: #020203; stroke: #fff; stroke-miterlimit: 10; stroke-width: 2.75px;"/>
  <path d="M87.35,46.67c-.62-.62-2.82-3.39-6.92-3.42v-8.65c0-1.9-1.56-3.46-3.46-3.46h-34.59c-1.9,0-3.46,1.56-3.46,3.46v58.81c0,1.9,1.56,3.46,3.46,3.46h34.59c1.9,0,3.46-1.56,3.46-3.46v-8.65c4.09-.03,6.28-2.79,6.92-3.42v12.07c0,5.73-4.65,10.38-10.38,10.38h-34.59c-5.73,0-10.38-4.65-10.38-10.38v-58.81c0-5.73,4.65-10.38,10.38-10.38h34.59c5.73,0,10.38,4.65,10.38,10.38v12.07Z" style="fill: #020203; stroke: #fff; stroke-miterlimit: 10; stroke-width: 2.75px;"/>
</svg>