<?xml version="1.0" encoding="UTF-8"?>
<svg id="uuid-6e8c5a5f-7227-4804-b942-600563366000" data-name="Content" xmlns="http://www.w3.org/2000/svg" viewBox="0 0 128 128">
  <path d="M29.57,50.39H4.72c-.99,0-1.8.81-1.8,1.8v23.82c0,.99.81,1.8,1.8,1.8h24.85c.99,0,1.8-.81,1.8-1.8v-23.82c0-.99-.81-1.8-1.8-1.8ZM27.77,74.21H6.52v-20.22h21.25v20.22Z" style="fill: #00a3a4;"/>
  <path d="M31.37,20.39c0-.99-.81-1.8-1.8-1.8s-1.8.81-1.8,1.8v8.82H6.52V9h17c.99,0,1.8-.81,1.8-1.8s-.81-1.8-1.8-1.8H4.72c-.99,0-1.8.81-1.8,1.8v23.82c0,.99.81,1.8,1.8,1.8h24.85c.99,0,1.8-.81,1.8-1.8v-10.63Z" style="fill: #00a3a4;"/>
  <path d="M55.56,13.6c0-1.92,1.56-3.49,3.49-3.49s3.49,1.56,3.49,3.49c0,1.09.89,1.98,1.98,1.98s1.98-.89,1.98-1.98c0-4.11-3.34-7.45-7.45-7.45s-7.45,3.34-7.45,7.45c0,1.09.89,1.98,1.98,1.98s1.98-.89,1.98-1.98Z" style="fill: #00a3a4;"/>
  <path d="M72.22,13.6c0-1.92,1.56-3.49,3.49-3.49s3.49,1.56,3.49,3.49c0,1.09.89,1.98,1.98,1.98s1.98-.89,1.98-1.98c0-4.11-3.34-7.45-7.45-7.45s-7.45,3.34-7.45,7.45c0,1.09.89,1.98,1.98,1.98s1.98-.89,1.98-1.98Z" style="fill: #00a3a4;"/>
  <path d="M47.56,21.42c-.79.76-.82,2.01-.06,2.8,5.34,5.57,12.53,8.64,20.25,8.64s14.91-3.07,20.25-8.64c.76-.79.73-2.04-.06-2.8-.79-.76-2.04-.73-2.8.06-4.59,4.79-10.76,7.42-17.39,7.42s-12.8-2.64-17.39-7.42c-.76-.79-2.01-.82-2.8-.06Z" style="fill: #00a3a4;"/>
  <path d="M80.43,53.31c0,1.92-1.56,3.49-3.49,3.49s-3.49-1.56-3.49-3.49c0-1.09-.89-1.98-1.98-1.98s-1.98.89-1.98,1.98c0,4.11,3.34,7.45,7.45,7.45s7.45-3.34,7.45-7.45c0-1.09-.89-1.98-1.98-1.98s-1.98.89-1.98,1.98Z" style="fill: #00a3a4;"/>
  <path d="M63.76,53.31c0,1.92-1.56,3.49-3.49,3.49s-3.49-1.56-3.49-3.49c0-1.09-.89-1.98-1.98-1.98s-1.98.89-1.98,1.98c0,4.11,3.34,7.45,7.45,7.45s7.45-3.34,7.45-7.45c0-1.09-.89-1.98-1.98-1.98s-1.98.89-1.98,1.98Z" style="fill: #00a3a4;"/>
  <path d="M50.16,78.04c.52,0,1.04-.2,1.43-.61,4.59-4.79,10.76-7.42,17.39-7.42s12.8,2.64,17.39,7.42c.76.79,2.01.82,2.8.06.79-.76.82-2.01.06-2.8-5.34-5.57-12.53-8.64-20.25-8.64s-14.91,3.07-20.25,8.64c-.76.79-.73,2.04.06,2.8.38.37.88.55,1.37.55Z" style="fill: #00a3a4;"/>
  <path d="M12.37,15.82c-.95-.79-2.37-.67-3.17.29-.8.95-.67,2.37.29,3.17l6.21,5.18s.1.07.14.1c.05.03.09.07.14.1.07.04.15.08.22.11.05.02.1.05.15.07.09.03.17.05.26.07.04.01.08.03.13.03.13.02.26.04.4.04,0,0,0,0,0,0,0,0,0,0,0,0,.16,0,.31-.02.46-.05.05,0,.09-.03.13-.04.11-.03.21-.06.31-.1.05-.02.1-.06.16-.09.09-.05.17-.09.25-.15.06-.04.1-.09.16-.14.05-.05.11-.09.16-.14L35.35,6.67c.85-.91.81-2.33-.1-3.18-.91-.85-2.33-.81-3.18.1l-15.12,16.06-4.59-3.82Z" style="fill: #00a3a4;"/>
  <path d="M12.06,15.3c-1.03-.85-2.57-.71-3.43.31-.86,1.02-.72,2.54.31,3.39l6.73,5.53s.1.07.16.11c.05.04.1.08.16.11.08.05.16.08.24.12.05.02.11.05.16.07.09.03.19.06.28.08.05.01.09.03.14.04.14.03.29.04.43.04,0,0,0,0,0,0,0,0,0,0,0,0,.17,0,.34-.02.5-.05.05-.01.1-.03.14-.04.11-.03.23-.06.34-.11.06-.03.11-.06.17-.09.09-.05.19-.1.27-.16.06-.04.11-.1.17-.14.06-.05.12-.09.18-.15L36.95,5.52c.92-.97.88-2.49-.1-3.4-.98-.91-2.52-.87-3.45.1l-16.37,17.16-4.97-4.08Z" style="fill: #00a3a4;"/>
</svg>