<?xml version="1.0" encoding="UTF-8"?>
<svg id="uuid-d1b555c2-375d-4159-9114-a12aa0c9b012" data-name="Content" xmlns="http://www.w3.org/2000/svg" viewBox="0 0 128 128">
  <path d="M64,41.53c-12.39,0-22.47,10.08-22.47,22.47s10.08,22.47,22.47,22.47,22.47-10.08,22.47-22.47-10.08-22.47-22.47-22.47ZM64,80.6c-9.16,0-16.6-7.45-16.6-16.6s7.45-16.6,16.6-16.6,16.6,7.45,16.6,16.6-7.45,16.6-16.6,16.6ZM61.07,32.74v-7.81c0-1.62,1.31-2.93,2.93-2.93s2.93,1.31,2.93,2.93v7.81c0,1.62-1.31,2.93-2.93,2.93s-2.93-1.31-2.93-2.93ZM66.93,95.26v7.81c0,1.62-1.31,2.93-2.93,2.93s-2.93-1.31-2.93-2.93v-7.81c0-1.62,1.31-2.93,2.93-2.93s2.93,1.31,2.93,2.93ZM84.03,43.97c-1.14-1.14-1.14-3,0-4.14l5.52-5.52c1.14-1.14,3-1.14,4.14,0s1.14,3,0,4.14l-5.52,5.52c-.57.57-1.32.86-2.07.86s-1.5-.29-2.07-.86ZM43.97,84.03c1.14,1.14,1.14,3,0,4.14l-5.53,5.53c-.57.57-1.32.86-2.07.86s-1.5-.29-2.07-.86c-1.14-1.14-1.14-3,0-4.14l5.53-5.53c1.14-1.14,3-1.14,4.14,0ZM106,64c0,1.62-1.31,2.93-2.93,2.93h-7.81c-1.62,0-2.93-1.31-2.93-2.93s1.31-2.93,2.93-2.93h7.81c1.62,0,2.93,1.31,2.93,2.93ZM32.74,66.93h-7.81c-1.62,0-2.93-1.31-2.93-2.93s1.31-2.93,2.93-2.93h7.81c1.62,0,2.93,1.31,2.93,2.93s-1.31,2.93-2.93,2.93ZM93.7,89.56c1.14,1.14,1.14,3,0,4.14-.57.57-1.32.86-2.07.86s-1.5-.29-2.07-.86l-5.52-5.53c-1.14-1.14-1.14-3,0-4.14,1.14-1.14,3-1.14,4.14,0l5.52,5.53ZM34.3,38.45c-1.14-1.14-1.14-3,0-4.14s3-1.14,4.14,0l5.53,5.52c1.14,1.14,1.14,3,0,4.14-.57.57-1.32.86-2.07.86s-1.5-.29-2.07-.86l-5.53-5.52Z" style="stroke: #fff; stroke-miterlimit: 10; stroke-width: 1.5px;"/>
</svg>