<?xml version="1.0" encoding="UTF-8"?>
<svg id="uuid-647fa053-77f7-47fd-ae9e-75968d7e289e" data-name="Content" xmlns="http://www.w3.org/2000/svg" viewBox="0 0 128 128">
  <path d="M9.98,43.5c-1.45,0-2.9-.44-4.16-1.35-3.18-2.3-3.9-6.76-1.6-9.95,2.3-3.19,6.76-3.9,9.95-1.6,3.18,2.3,3.9,6.76,1.6,9.95-1.39,1.93-3.57,2.95-5.79,2.95ZM10,30.01c-1.97,0-3.92.91-5.17,2.63-2.05,2.84-1.41,6.83,1.43,8.88,1.38,1,3.06,1.39,4.74,1.12,1.68-.27,3.15-1.18,4.14-2.56,2.05-2.84,1.41-6.83-1.43-8.88-1.12-.81-2.43-1.2-3.72-1.2Z" style="fill: #0099c6;"/>
  <path d="M30.75,16.25c-1.45,0-2.9-.44-4.16-1.35-3.18-2.3-3.9-6.76-1.6-9.95,2.3-3.19,6.76-3.9,9.95-1.6,3.18,2.3,3.9,6.76,1.6,9.95-1.39,1.93-3.57,2.95-5.79,2.95ZM30.77,2.77c-1.97,0-3.92.91-5.17,2.63-2.05,2.84-1.41,6.83,1.43,8.88,1.38,1,3.06,1.39,4.74,1.12,1.68-.27,3.15-1.18,4.14-2.56,2.05-2.84,1.41-6.83-1.43-8.88-1.12-.81-2.43-1.2-3.72-1.2Z" style="fill: #0099c6;"/>
  <path d="M55.54,15.8c-1.45,0-2.9-.44-4.16-1.35-3.18-2.3-3.9-6.76-1.6-9.95,2.3-3.18,6.76-3.9,9.95-1.6,3.18,2.3,3.9,6.76,1.6,9.95-1.39,1.93-3.57,2.95-5.79,2.95ZM55.56,2.32c-1.97,0-3.92.91-5.17,2.63-1,1.38-1.39,3.06-1.12,4.74.27,1.68,1.18,3.15,2.56,4.14,2.84,2.05,6.83,1.41,8.88-1.43s1.41-6.83-1.43-8.88c-1.12-.81-2.43-1.2-3.72-1.2Z" style="fill: #0099c6;"/>
  <path d="M79.66,22.95c-1.45,0-2.9-.44-4.16-1.35-3.18-2.3-3.9-6.76-1.6-9.95,2.3-3.18,6.76-3.9,9.95-1.6,3.18,2.3,3.9,6.76,1.6,9.95-1.39,1.93-3.57,2.95-5.79,2.95ZM79.68,9.46c-.34,0-.68.03-1.03.08-1.68.27-3.15,1.18-4.14,2.56-2.05,2.84-1.41,6.83,1.43,8.88,2.84,2.05,6.83,1.41,8.88-1.43,2.05-2.84,1.41-6.83-1.43-8.88-1.1-.79-2.39-1.21-3.71-1.21Z" style="fill: #0099c6;"/>
  <path d="M85.46,59.8c-1.45,0-2.9-.44-4.16-1.35-3.18-2.3-3.9-6.76-1.6-9.95,2.3-3.18,6.76-3.9,9.95-1.6s3.9,6.76,1.6,9.95c-1.39,1.93-3.57,2.95-5.79,2.95ZM85.49,46.31c-.34,0-.68.03-1.03.08-1.68.27-3.15,1.18-4.14,2.56-2.05,2.84-1.41,6.83,1.43,8.88,2.84,2.05,6.83,1.41,8.88-1.43,2.05-2.84,1.41-6.83-1.43-8.88-1.1-.79-2.39-1.21-3.71-1.21Z" style="fill: #0099c6;"/>
  <path d="M73.4,77.89c-1.45,0-2.9-.44-4.16-1.35-3.18-2.3-3.9-6.76-1.6-9.95,2.3-3.19,6.76-3.9,9.95-1.6s3.9,6.76,1.6,9.95c-1.39,1.93-3.57,2.95-5.79,2.95ZM73.42,64.41c-1.97,0-3.92.91-5.17,2.63-2.05,2.84-1.41,6.83,1.43,8.88,1.38,1,3.06,1.39,4.74,1.12,1.68-.27,3.15-1.18,4.14-2.56,2.05-2.84,1.41-6.83-1.43-8.88-1.12-.81-2.43-1.2-3.72-1.2Z" style="fill: #0099c6;"/>
  <path d="M13.11,66.72c-1.45,0-2.9-.44-4.16-1.35-1.54-1.11-2.56-2.76-2.86-4.64s.14-3.76,1.26-5.31c2.3-3.19,6.76-3.9,9.95-1.6,1.54,1.11,2.56,2.76,2.86,4.64.3,1.88-.14,3.76-1.26,5.31-1.39,1.93-3.57,2.95-5.79,2.95ZM13.12,53.24c-1.97,0-3.92.91-5.17,2.63-1,1.38-1.39,3.06-1.12,4.74.27,1.68,1.18,3.15,2.56,4.14,2.84,2.05,6.83,1.41,8.88-1.43h0c1-1.38,1.39-3.06,1.12-4.74-.27-1.68-1.18-3.15-2.55-4.14-1.12-.81-2.43-1.2-3.72-1.2Z" style="fill: #0099c6;"/>
  <path d="M31.2,81.69c-1.45,0-2.9-.44-4.16-1.35-3.18-2.3-3.9-6.76-1.6-9.95,2.3-3.19,6.76-3.9,9.95-1.6,3.18,2.3,3.9,6.76,1.6,9.95-1.39,1.93-3.57,2.95-5.79,2.95ZM31.21,68.2c-1.97,0-3.92.91-5.17,2.63-2.05,2.84-1.41,6.83,1.43,8.88,1.38,1,3.06,1.39,4.74,1.12,1.68-.27,3.15-1.18,4.14-2.56,2.05-2.84,1.41-6.83-1.43-8.88-1.12-.81-2.43-1.2-3.72-1.2Z" style="fill: #0099c6;"/>
  <path d="M64.1,40.87s0,0,0,0c-.26-3.95-3.55-7.08-7.57-7.08-.51,0-1.02.05-1.51.15-1.68-2.11-4.25-3.39-7.06-3.39-2.21,0-4.31.81-5.93,2.23-.88-.37-1.81-.55-2.78-.55-3.73,0-6.8,2.83-7.2,6.45-3.39.88-5.74,3.91-5.74,7.44,0,4.24,3.45,7.69,7.69,7.69,1.36,0,2.67-.35,3.84-1.03,1.49,2.74,4.39,4.58,7.7,4.58.37,0,.73-.02,1.09-.07,1.04,2.77,3.99,4.66,7.39,4.66,3.88,0,7.19-3.1,7.55-6.92,1.62-.33,3.11-1.21,4.22-2.52,1.22-1.43,1.89-3.24,1.89-5.1,0-2.77-1.34-5.22-3.58-6.55ZM61.57,53.64c-.25-2.66-1.91-5.02-4.37-6.14-.34-.16-.74,0-.9.34s0,.74.34.9c2.19,1,3.61,3.2,3.61,5.6,0,3.39-2.85,6.26-6.23,6.26-2.75,0-5.14-1.45-6.04-3.59,1.96-.57,3.69-1.81,4.85-3.57.21-.31.12-.73-.19-.94-.31-.21-.73-.12-.94.19-1.38,2.07-3.68,3.31-6.17,3.31-3.92,0-7.16-3.06-7.39-6.97-.02-.37-.34-.66-.72-.64-.37.02-.66.34-.64.72.05.85.22,1.66.49,2.42-.99.6-2.11.92-3.28.92-3.49,0-6.33-2.84-6.33-6.34,0-2.78,1.76-5.18,4.35-6.02.04,1.12.19,2.39.77,3.36.13.21.35.33.58.33.12,0,.24-.03.35-.1.32-.19.43-.61.23-.93-.53-.88-.59-2.3-.59-3.3,0-3.25,2.64-5.89,5.88-5.89.6,0,1.18.09,1.74.26-.34.41-.64.85-.9,1.31,0,0,0,0,0,0-.64,1.14-1.02,2.37-1.13,3.67-.03.37.25.7.62.73.02,0,.04,0,.06,0,.35,0,.65-.27.68-.62.09-1.11.41-2.16.96-3.12,0,0,0,0,0,0,1.36-2.42,3.92-3.92,6.69-3.92,3.35,0,6.28,2.14,7.31,5.32.09.29.36.47.65.47.07,0,.14-.01.21-.03.36-.11.55-.5.44-.85-.18-.57-.42-1.12-.7-1.63.23-.02.45-.04.68-.04,3.43,0,6.23,2.79,6.23,6.23,0,1.13-.3,2.23-.88,3.2-.19.32-.09.74.23.93.11.07.23.1.35.1.23,0,.46-.12.58-.33.51-.86.85-1.81.99-2.8,1.45,1.14,2.29,2.94,2.29,4.95,0,2.92-2.04,5.54-4.75,6.23ZM42.85,41.93c0-1.29,1.05-2.33,2.33-2.33s2.33,1.05,2.33,2.33c0,.38-.3.68-.68.68s-.68-.3-.68-.68c0-.54-.44-.97-.97-.97s-.97.44-.97.97c0,.38-.3.68-.68.68s-.68-.3-.68-.68ZM47.89,41.93c0-1.29,1.05-2.33,2.33-2.33s2.33,1.05,2.33,2.33c0,.38-.3.68-.68.68s-.68-.3-.68-.68c0-.54-.44-.97-.97-.97s-.97.44-.97.97c0,.38-.3.68-.68.68s-.68-.3-.68-.68ZM53.97,44.23c.27.26.28.69.02.96-1.63,1.7-3.82,2.64-6.18,2.64s-4.55-.94-6.18-2.64c-.26-.27-.25-.7.02-.96.27-.26.7-.25.96.02,1.37,1.43,3.22,2.22,5.2,2.22s3.83-.79,5.2-2.22c.26-.27.69-.28.96-.02ZM64.54,35.04c-.63,0-1.15.52-1.15,1.15s.52,1.15,1.15,1.15,1.15-.52,1.15-1.15-.52-1.15-1.15-1.15ZM64.54,36.89c-.38,0-.7-.31-.7-.7s.31-.7.7-.7.7.31.7.7-.31.7-.7.7ZM66.68,38.86c.47,0,.85-.38.85-.85s-.38-.85-.85-.85-.85.38-.85.85.38.85.85.85ZM66.68,37.62c.22,0,.4.18.4.4s-.18.4-.4.4-.4-.18-.4-.4.18-.4.4-.4ZM65.47,39.36c-.25,0-.45.2-.45.45s.2.45.45.45.45-.2.45-.45-.2-.45-.45-.45ZM65.47,39.95c-.08,0-.15-.07-.15-.15s.07-.15.15-.15.15.07.15.15-.07.15-.15.15ZM64.64,28.65c-.17-.64-.7-1.13-1.35-1.27-.12-.03-.2-.15-.18-.27.03-.12.14-.2.27-.18.81.17,1.47.79,1.69,1.59.03.12-.04.24-.16.28-.02,0-.04,0-.06,0-.1,0-.19-.07-.22-.17ZM67.74,27.98c-.73,0-1.41.2-2.02.59-.25-1.31-1.41-2.31-2.79-2.31-1.57,0-2.84,1.28-2.84,2.84s1.27,2.84,2.84,2.84c.38,0,.73-.08,1.06-.21,0,2.06,1.68,3.73,3.74,3.73s3.74-1.68,3.74-3.74-1.68-3.74-3.74-3.74ZM60.55,29.11c0-1.32,1.07-2.39,2.39-2.39s2.39,1.07,2.39,2.39-1.07,2.39-2.39,2.39-2.39-1.07-2.39-2.39ZM67.74,35.02c-1.81,0-3.29-1.48-3.29-3.29,0-.07,0-.15,0-.22.79-.51,1.32-1.39,1.32-2.4,0,0,0-.01,0-.02.57-.43,1.25-.65,1.96-.65,1.81,0,3.29,1.48,3.29,3.29s-1.48,3.29-3.29,3.29ZM70.39,31.24s-.04,0-.06,0c-.1,0-.19-.07-.22-.17-.24-.88-.97-1.57-1.87-1.76-.12-.03-.2-.15-.18-.27.03-.12.14-.2.27-.18,1.06.22,1.93,1.04,2.21,2.08.03.12-.04.24-.16.28ZM65.58,25.77c.44,0,.79-.35.79-.79s-.35-.79-.79-.79-.79.35-.79.79.35.79.79.79ZM65.58,24.64c.19,0,.34.15.34.34s-.15.34-.34.34-.34-.15-.34-.34.15-.34.34-.34ZM69.63,27.41c.74,0,1.33-.6,1.33-1.33s-.6-1.33-1.33-1.33-1.33.6-1.33,1.33.6,1.33,1.33,1.33ZM69.63,25.19c.49,0,.88.4.88.88s-.39.88-.88.88-.88-.4-.88-.88.4-.88.88-.88Z" style="fill: #0099c6;"/>
</svg>