<?xml version="1.0" encoding="UTF-8"?>
<svg
    class="group-hover:translate-x-[3px] mh-transition"
    width="20"
    height="20"
    fill="var(--mh-blue-700-gray-100)"
    data-name="Content"
    xmlns="http://www.w3.org/2000/svg"
    viewBox="0 0 128 128"
>
    <path
        d="M96.38,65.9c2.1,0,3.81,1.71,3.81,3.81v22.86c0,6.3-5.13,11.43-11.43,11.43h-53.33c-6.3,0-11.43-5.13-11.43-11.43v-53.33c0-6.3,5.13-11.43,11.43-11.43h22.86c2.1,0,3.81,1.71,3.81,3.81s-1.71,3.81-3.81,3.81h-22.86c-2.1,0-3.81,1.71-3.81,3.81v53.33c0,2.1,1.71,3.81,3.81,3.81h53.33c2.1,0,3.81-1.71,3.81-3.81v-22.86c0-2.1,1.71-3.81,3.81-3.81Z"
        stroke="var(--mh-gray-100-blue-900)"
        stroke-width="1px"
    />
    <path
        d="M100.19,24c2.1,0,3.81,1.71,3.81,3.81v22.86c0,2.1-1.71,3.81-3.81,3.81s-3.81-1.71-3.81-3.81v-13.66l-31.59,31.59c-.74.74-1.72,1.12-2.69,1.12s-1.95-.37-2.69-1.12c-1.49-1.49-1.49-3.9,0-5.39l31.59-31.59h-13.66c-2.1,0-3.81-1.71-3.81-3.81s1.71-3.81,3.81-3.81h22.86Z"
        stroke="var(--mh-gray-100-blue-900)"
        stroke-width="1px"
    />
</svg>
