<?xml version="1.0" encoding="UTF-8"?>
<svg id="uuid-8907fc8c-93c2-4d0f-95ae-5ee09b4ce156" data-name="Content" xmlns="http://www.w3.org/2000/svg" viewBox="0 0 128 128">
  <path d="M29.91,66.13c-5.88,0-10.65-4.77-10.65-10.65s4.77-10.65,10.65-10.65,10.65,4.77,10.65,10.65-4.77,10.65-10.65,10.65h0ZM27.78,66.13h4.26c7.06,0,12.78,5.72,12.78,12.78v6.39c0,3.53-2.86,6.39-6.39,6.39h-17.04c-3.53,0-6.39-2.86-6.39-6.39v-6.39c0-7.06,5.72-12.78,12.78-12.78h0ZM29.91,61.87c3.53,0,6.39-2.86,6.39-6.39s-2.86-6.39-6.39-6.39-6.39,2.86-6.39,6.39,2.86,6.39,6.39,6.39h0ZM27.78,70.39c-4.71,0-8.52,3.82-8.52,8.52v6.39c0,1.18.95,2.13,2.13,2.13h17.04c1.18,0,2.13-.95,2.13-2.13v-6.39c0-4.71-3.82-8.52-8.52-8.52h-4.26Z" style="stroke: #fff; stroke-miterlimit: 10; stroke-width: .5px;"/>
  <path d="M64,57.61c-5.88,0-10.65-4.77-10.65-10.65s4.77-10.65,10.65-10.65,10.65,4.77,10.65,10.65-4.77,10.65-10.65,10.65h0ZM61.87,57.61h4.26c7.06,0,12.78,5.72,12.78,12.78v6.39c0,3.53-2.86,6.39-6.39,6.39h-17.04c-3.53,0-6.39-2.86-6.39-6.39v-6.39c0-7.06,5.72-12.78,12.78-12.78h0ZM64,53.35c3.53,0,6.39-2.86,6.39-6.39s-2.86-6.39-6.39-6.39-6.39,2.86-6.39,6.39,2.86,6.39,6.39,6.39h0ZM61.87,61.87c-4.71,0-8.52,3.82-8.52,8.52v6.39c0,1.18.95,2.13,2.13,2.13h17.04c1.18,0,2.13-.95,2.13-2.13v-6.39c0-4.71-3.82-8.52-8.52-8.52h-4.26Z" style="stroke: #fff; stroke-miterlimit: 10; stroke-width: .5px;"/>
  <path d="M98.09,66.13c-5.88,0-10.65-4.77-10.65-10.65s4.77-10.65,10.65-10.65,10.65,4.77,10.65,10.65-4.77,10.65-10.65,10.65h0ZM95.96,66.13h4.26c7.06,0,12.78,5.72,12.78,12.78v6.39c0,3.53-2.86,6.39-6.39,6.39h-17.04c-3.53,0-6.39-2.86-6.39-6.39v-6.39c0-7.06,5.72-12.78,12.78-12.78h0ZM98.09,61.87c3.53,0,6.39-2.86,6.39-6.39s-2.86-6.39-6.39-6.39-6.39,2.86-6.39,6.39,2.86,6.39,6.39,6.39h0ZM95.96,70.39c-4.71,0-8.52,3.82-8.52,8.52v6.39c0,1.18.95,2.13,2.13,2.13h17.04c1.18,0,2.13-.95,2.13-2.13v-6.39c0-4.71-3.82-8.52-8.52-8.52h-4.26Z" style="stroke: #fff; stroke-miterlimit: 10; stroke-width: .5px;"/>
</svg>