<?xml version="1.0" encoding="UTF-8"?>
<svg id="uuid-61cf4882-3d59-4e52-9303-6c0436ad6f80" data-name="Content" xmlns="http://www.w3.org/2000/svg" viewBox="0 0 128 128">
  <path d="M108.3,74.63c0-11.66-5.9-22.32-15.79-28.53-4.64-15.26-18.84-26.4-35.59-26.4-20.52,0-37.21,16.69-37.21,37.21,0,5.87,1.41,11.7,4.07,16.92l-4.03,18.14c-.13.59.05,1.21.48,1.64.34.34.79.52,1.25.52.13,0,.26-.01.38-.04l18.14-4.03c1.94.99,3.98,1.75,6.06,2.38,6.2,9.93,16.87,15.86,28.57,15.86,5.29,0,10.54-1.26,15.25-3.65l16.26,3.61c.13.03.26.04.38.04.47,0,.92-.18,1.25-.52.43-.43.61-1.05.48-1.64l-3.61-16.26c2.39-4.7,3.65-9.96,3.65-15.25ZM40.24,86.41c-.13,0-.26.01-.38.04l-16.05,3.57,3.57-16.05c.09-.41.03-.85-.17-1.22-2.59-4.85-3.96-10.32-3.96-15.83,0-18.56,15.1-33.66,33.66-33.66s33.66,15.1,33.66,33.66-15.1,33.66-33.66,33.66c-5.51,0-10.99-1.37-15.83-3.96-.26-.14-.55-.21-.84-.21ZM90.02,101.04c-.41-.09-.85-.03-1.22.17-4.34,2.32-9.24,3.54-14.17,3.54-9.2,0-17.69-4.1-23.38-11.12,1.87.29,3.76.49,5.66.49,20.52,0,37.21-16.69,37.21-37.21,0-1.92-.19-3.79-.47-5.64,7.01,5.69,11.1,14.17,11.1,23.36,0,4.93-1.23,9.83-3.54,14.17-.2.37-.26.81-.17,1.22l3.15,14.17-14.17-3.15Z" style="stroke: #000; stroke-miterlimit: 10; stroke-width: .5px;"/>
  <path d="M62.62,56.91c0-3.15-2.56-5.71-5.71-5.71s-5.71,2.56-5.71,5.71,2.56,5.71,5.71,5.71,5.71-2.56,5.71-5.71ZM54.75,56.91c0-1.19.97-2.17,2.17-2.17s2.17.97,2.17,2.17-.97,2.17-2.17,2.17-2.17-.97-2.17-2.17Z" style="stroke: #000; stroke-miterlimit: 10; stroke-width: .5px;"/>
  <path d="M72.66,62.62c3.15,0,5.71-2.56,5.71-5.71s-2.56-5.71-5.71-5.71-5.71,2.56-5.71,5.71,2.56,5.71,5.71,5.71ZM72.66,54.75c1.19,0,2.17.97,2.17,2.17s-.97,2.17-2.17,2.17-2.16-.97-2.16-2.17.97-2.17,2.16-2.17Z" style="stroke: #000; stroke-miterlimit: 10; stroke-width: .5px;"/>
  <path d="M41.16,51.2c-3.15,0-5.71,2.56-5.71,5.71s2.56,5.71,5.71,5.71,5.71-2.56,5.71-5.71-2.56-5.71-5.71-5.71ZM41.16,59.08c-1.19,0-2.17-.97-2.17-2.17s.97-2.17,2.17-2.17,2.16.97,2.16,2.17-.97,2.17-2.16,2.17Z" style="stroke: #000; stroke-miterlimit: 10; stroke-width: .5px;"/>
</svg>