<?xml version="1.0" encoding="UTF-8"?>
<svg id="uuid-e77bfc33-02d3-44ab-9b65-f78820b1a201" data-name="Content" xmlns="http://www.w3.org/2000/svg" viewBox="0 0 128 128">
  <path d="M64,19c-24.84,0-45,20.16-45,45s20.16,45,45,45,45-20.16,45-45-20.16-45-45-45ZM64,21.73c23.36,0,42.27,18.91,42.27,42.27s-18.91,42.27-42.27,42.27-42.27-18.91-42.27-42.27,18.91-42.27,42.27-42.27ZM64,25.82c-.75,0-1.36.61-1.36,1.36s.61,1.36,1.36,1.36,1.36-.61,1.36-1.36-.61-1.36-1.36-1.36ZM71.22,26.52c-.67-.02-1.24.45-1.37,1.1-.14.74.34,1.45,1.08,1.6.74.14,1.45-.34,1.6-1.07.14-.74-.34-1.46-1.07-1.61-.08-.01-.15-.02-.23-.03ZM56.82,26.53c-.09,0-.18,0-.27.02-.74.15-1.22.87-1.07,1.61.07.35.28.67.58.87.3.2.67.27,1.02.2.74-.15,1.22-.86,1.07-1.6-.13-.63-.68-1.09-1.33-1.1ZM49.92,28.62c-.18,0-.36.03-.53.1-.7.29-1.03,1.09-.74,1.78.29.7,1.08,1.03,1.78.74.7-.29,1.03-1.09.74-1.78-.21-.51-.7-.84-1.25-.84ZM78.12,28.62c-.56-.01-1.08.32-1.29.84-.29.7.04,1.49.74,1.78.7.29,1.49-.04,1.78-.74.29-.7-.04-1.49-.74-1.78-.15-.06-.32-.1-.49-.1ZM43.56,32.02c-.28,0-.55.08-.78.23-.62.42-.79,1.26-.37,1.89.42.62,1.26.79,1.89.37.63-.42.79-1.26.38-1.89-.25-.38-.67-.61-1.12-.61ZM84.48,32.02c-.46,0-.9.22-1.16.61-.42.62-.25,1.47.37,1.89.63.42,1.48.25,1.89-.37.2-.3.28-.67.21-1.02-.07-.36-.28-.67-.58-.87-.22-.15-.47-.23-.74-.23ZM37.98,36.6c-.37,0-.72.14-.98.4-.53.53-.53,1.4,0,1.92.53.53,1.4.53,1.92,0,.53-.53.53-1.4,0-1.92-.25-.26-.59-.4-.94-.4ZM90.05,36.6c-.37,0-.72.14-.98.4-.53.53-.53,1.4,0,1.92.53.53,1.4.53,1.92,0,.53-.53.53-1.4,0-1.92-.25-.26-.59-.4-.94-.4ZM94.63,42.18c-.28,0-.54.07-.77.23-.62.42-.79,1.26-.37,1.89.42.63,1.26.8,1.89.38.63-.42.8-1.26.38-1.89-.25-.37-.67-.6-1.12-.6ZM33.41,42.18c-.46-.01-.9.22-1.16.6-.42.63-.25,1.48.38,1.89.63.42,1.47.25,1.89-.37.42-.63.25-1.48-.38-1.89-.22-.14-.47-.22-.74-.23ZM68.24,48.21c-8.76,0-14.25,3.9-15.92,10.97h-4.33v3.13h3.88c-.06.58-.06,1.17-.06,1.79s.02,1.21.06,1.81h-3.88v3.11h4.33c1.66,7.07,7.16,10.99,15.92,10.99,1.41,0,2.79-.11,3.58-.21v-4.41c-.83.13-2.02.19-3.58.19-5.54,0-9.29-2.3-10.8-6.56h11.42v-3.11h-12.12c-.04-.58-.09-1.19-.09-1.81s.04-1.21.09-1.79h12.12v-3.13h-11.44c1.53-4.24,5.31-6.54,10.87-6.54,1.53,0,2.66.04,3.49.19v-4.37c-.77-.13-2.22-.26-3.54-.26ZM98.03,48.55c-.18,0-.36.03-.53.1-.7.29-1.03,1.09-.74,1.78.29.7,1.09,1.03,1.78.74s1.03-1.09.74-1.78c-.21-.5-.7-.84-1.25-.84ZM30.02,48.55c-.56-.01-1.08.32-1.29.84-.29.7.04,1.49.74,1.78.7.29,1.5-.04,1.78-.74s-.04-1.49-.74-1.78c-.15-.07-.32-.1-.49-.11ZM100.12,55.46c-.09,0-.18,0-.27.02-.74.15-1.21.87-1.07,1.6.15.74.87,1.22,1.6,1.08.74-.15,1.22-.87,1.08-1.61-.13-.63-.69-1.09-1.34-1.09ZM27.93,55.46c-.67-.02-1.24.44-1.37,1.09-.07.36,0,.73.2,1.03.2.3.52.51.87.58.35.07.72,0,1.02-.2.3-.2.51-.52.58-.87.15-.74-.33-1.45-1.07-1.6-.08-.01-.15-.02-.23-.02ZM27.18,62.64c-.75,0-1.36.61-1.36,1.36s.61,1.36,1.36,1.36,1.36-.61,1.36-1.36-.61-1.36-1.36-1.36ZM100.82,62.64c-.75,0-1.36.61-1.36,1.36s.61,1.36,1.36,1.36,1.36-.61,1.36-1.36-.61-1.36-1.36-1.36ZM27.9,69.82c-.09,0-.18.01-.27.03-.74.15-1.22.87-1.07,1.61.15.74.86,1.21,1.6,1.07.74-.15,1.22-.87,1.07-1.6-.13-.64-.68-1.1-1.33-1.1ZM100.15,69.82c-.67-.02-1.24.45-1.37,1.1-.14.74.34,1.45,1.07,1.6.74.14,1.46-.34,1.61-1.07.14-.74-.34-1.46-1.08-1.61-.07-.01-.15-.02-.23-.03ZM98.05,76.72c-.56-.01-1.08.32-1.29.85-.29.69.04,1.49.74,1.78s1.49-.04,1.78-.74c.29-.7-.04-1.5-.74-1.78-.15-.06-.32-.1-.49-.11ZM29.99,76.73c-.18,0-.36.03-.53.1-.33.14-.6.4-.74.74-.14.34-.14.71,0,1.04.29.7,1.09,1.03,1.78.74.34-.13.6-.4.74-.74s.14-.71,0-1.04c-.21-.51-.7-.84-1.25-.84ZM94.64,83.09c-.46-.01-.9.22-1.16.6-.42.63-.25,1.47.37,1.89.3.2.67.28,1.02.2.36-.07.67-.28.87-.58.42-.62.25-1.47-.38-1.89-.21-.15-.47-.23-.73-.23ZM33.4,83.09c-.28,0-.54.07-.77.23-.62.42-.79,1.26-.38,1.89.42.62,1.27.79,1.9.37.62-.42.79-1.26.37-1.89-.25-.37-.67-.6-1.12-.6ZM37.98,88.67c-.37,0-.72.14-.98.4-.53.53-.53,1.4,0,1.92.53.53,1.4.53,1.92,0,.53-.53.53-1.4,0-1.92-.25-.26-.59-.4-.94-.4ZM90.05,88.67c-.37,0-.72.14-.98.4-.53.53-.53,1.4,0,1.92.53.53,1.4.53,1.92,0,.53-.53.53-1.4,0-1.92-.25-.26-.59-.4-.94-.4ZM43.57,93.25c-.46-.01-.9.22-1.16.6-.42.63-.25,1.48.38,1.9.62.42,1.47.25,1.89-.38.42-.63.25-1.47-.37-1.89-.22-.14-.47-.23-.74-.23ZM84.47,93.25c-.28,0-.54.07-.77.22-.3.2-.51.52-.58.87-.07.35,0,.72.21,1.02.42.62,1.26.79,1.89.38.62-.42.79-1.27.37-1.9-.25-.37-.67-.6-1.12-.6ZM49.94,96.65c-.56-.01-1.08.32-1.29.85-.29.69.04,1.49.74,1.78.7.29,1.5-.04,1.78-.74.29-.7-.04-1.5-.74-1.78-.15-.06-.32-.1-.49-.11ZM78.1,96.65c-.18,0-.36.04-.53.11-.34.14-.6.4-.74.74-.14.34-.14.71,0,1.05.29.69,1.09,1.02,1.78.74.34-.14.6-.4.74-.74.14-.34.14-.71,0-1.04-.21-.51-.7-.84-1.25-.85ZM56.86,98.75c-.67-.02-1.25.45-1.37,1.1-.15.74.33,1.45,1.07,1.6s1.45-.33,1.6-1.07-.33-1.45-1.07-1.6c-.07-.02-.15-.03-.23-.03ZM71.19,98.75c-.09,0-.18,0-.27.02-.74.15-1.22.86-1.08,1.6.07.36.28.67.58.87.3.2.67.28,1.03.21.35-.07.67-.28.87-.58.2-.3.27-.67.2-1.03-.13-.63-.69-1.09-1.34-1.09ZM64,99.45c-.75,0-1.36.61-1.36,1.36s.61,1.36,1.36,1.36,1.36-.61,1.36-1.36-.61-1.36-1.36-1.36Z" style="stroke: #000; stroke-miterlimit: 10;"/>
</svg>