<?xml version="1.0" encoding="UTF-8"?>
<svg id="uuid-57b95a96-498a-4146-bac0-b30f3a6005f9" data-name="Content" xmlns="http://www.w3.org/2000/svg" viewBox="0 0 128 128">
  <path d="M70.32,94.13c.51.51.77,1.17.77,1.95v7.22c0,.79-.26,1.44-.77,1.95-.51.51-1.2.77-2.07.77h-7.7c-.79,0-1.44-.26-1.95-.77-.51-.51-.77-1.16-.77-1.95v-7.22c0-.79.26-1.44.77-1.95.51-.51,1.16-.77,1.95-.77h7.7c.87,0,1.56.26,2.07.77ZM90.15,36.3c-.95-2.6-2.47-4.99-4.56-7.16-2.09-2.17-4.85-3.91-8.29-5.21-3.43-1.3-7.56-1.95-12.37-1.95-4.26,0-8.11.65-11.54,1.95-3.43,1.3-6.39,3.06-8.88,5.27-2.49,2.21-4.4,4.78-5.74,7.7-1.34,2.92-2.05,6-2.13,9.23,0,.79.26,1.42.77,1.89.51.47,1.12.71,1.84.71h5.68c.71,0,1.34-.2,1.89-.59.55-.39.95-1.07,1.18-2.01.95-5.13,2.9-8.78,5.86-10.95,2.96-2.17,6.53-3.26,10.71-3.26,2.6,0,5.13.51,7.58,1.54,2.45,1.03,4.38,2.51,5.8,4.44,1.42,1.93,1.97,4.32,1.66,7.16-.32,2.21-1.17,4.3-2.55,6.27-1.38,1.97-3.06,3.93-5.03,5.86-1.97,1.93-3.93,3.97-5.86,6.1-1.93,2.13-3.57,4.5-4.91,7.1-1.34,2.6-2.09,5.6-2.25,9,0,.79,0,1.58,0,2.37,0,.79,0,1.58,0,2.37,0,.79.24,1.4.71,1.83.47.43,1.07.65,1.78.65h6.39c.87,0,1.54-.24,2.01-.71.47-.47.79-1.14.95-2.01,0-.79.02-1.6.06-2.43.04-.83.1-1.68.18-2.55.16-2.53.93-4.87,2.31-7.04,1.38-2.17,3.04-4.26,4.97-6.27,1.93-2.01,3.85-4.06,5.74-6.16,1.89-2.09,3.51-4.38,4.85-6.87,1.34-2.49,2.13-5.31,2.37-8.46.16-2.6-.24-5.21-1.18-7.81Z" style="fill: none; stroke: #000; stroke-miterlimit: 10; stroke-width: 4px;"/>
</svg>