<?xml version="1.0" encoding="UTF-8"?>
<svg id="uuid-f07906a9-b155-426e-a733-1d79087aa6f4" data-name="Content" xmlns="http://www.w3.org/2000/svg" viewBox="0 0 128 128">
  <path d="M57.84,18h12.32c2.8,0,5.19,2.02,5.67,4.78l1.22,7.07c.64.24,1.28.5,1.9.78l5.85-4.13c2.11-1.48,5.17-1.53,7.38.63l8.71,8.71c1.98,1.98,2.25,5.1.63,7.38l-4.13,5.85c.28.62.53,1.26.78,1.9l7.07,1.22c2.76.47,4.77,2.87,4.77,5.67v12.32c0,2.8-2.02,5.19-4.78,5.67l-7.07,1.22c-.24.64-.5,1.28-.78,1.9l4.13,5.85c1.61,2.29,1.35,5.4-.63,7.38l-8.71,8.71c-2.36,2.36-5.66,1.9-7.38.63l-5.85-4.13c-.62.28-1.26.53-1.9.78l-1.22,7.07c-.47,2.76-2.87,4.77-5.67,4.77h-12.32c-2.8,0-5.19-2.02-5.67-4.78l-1.22-7.07c-.64-.24-1.28-.5-1.9-.78l-5.85,4.13c-1.95,1.41-5.12,1.58-7.38-.63l-8.71-8.71c-1.98-1.98-2.25-5.1-.63-7.38l4.13-5.85c-.28-.62-.53-1.26-.78-1.9l-7.07-1.22c-2.76-.47-4.77-2.87-4.77-5.67v-12.32c0-2.8,2.02-5.19,4.78-5.67l7.07-1.22c.24-.64.5-1.28.78-1.9l-4.13-5.85c-1.61-2.29-1.35-5.4.63-7.38l8.71-8.71c1.79-1.76,4.82-2.41,7.38-.63l5.85,4.13c.62-.28,1.26-.53,1.9-.78l1.22-7.07c.47-2.76,2.87-4.77,5.67-4.77ZM67.99,26.58c-.02-.13-.13-.22-.26-.22h-7.47c-.13,0-.24.09-.26.22l-1.61,9.38c-3.59,1.28-7.03,2.69-10.26,4.24l-7.77-5.49c-.1-.07-.25-.06-.34.03l-5.28,5.28c-.09.09-.1.23-.03.34l5.49,7.77c-1.64,3.42-3.03,6.84-4.24,10.26l-9.38,1.61c-.13.02-.22.13-.22.26v7.47c0,.13.09.24.22.26l9.38,1.61c1.2,3.36,2.62,6.78,4.24,10.26l-5.49,7.77c-.07.1-.06.25.03.34l5.28,5.28c.09.09.23.1.34.03l7.77-5.49c3.48,1.68,6.9,3.08,10.26,4.24l1.61,9.38c.02.13.13.22.26.22h7.47c.13,0,.24-.09.26-.22l1.61-9.38c3.41-1.22,6.83-2.63,10.26-4.24l7.77,5.49c.1.07.25.06.34-.03l5.28-5.28c.09-.09.1-.23.03-.34l-5.49-7.77c1.61-3.35,3.02-6.77,4.24-10.26l9.38-1.61c.13-.02.22-.13.22-.26v-7.47c0-.13-.09-.24-.22-.26l-9.38-1.61c-1.23-3.49-2.66-6.9-4.24-10.26l5.49-7.77c.07-.1.06-.25-.03-.34l-5.28-5.28c-.09-.09-.23-.1-.34-.03l-7.77,5.49c-3.11-1.52-6.57-2.92-10.26-4.24l-1.61-9.38Z" style="stroke: #fff; stroke-miterlimit: 10; stroke-width: 4px;"/>
  <path d="M64,45.18c10.39,0,18.82,8.42,18.82,18.82s-8.42,18.82-18.82,18.82-18.82-8.42-18.82-18.82,8.42-18.82,18.82-18.82ZM64,53.55c-5.77,0-10.45,4.68-10.45,10.45s4.68,10.45,10.45,10.45,10.45-4.68,10.45-10.45-4.68-10.45-10.45-10.45Z" style="stroke: #fff; stroke-miterlimit: 10; stroke-width: 4px;"/>
</svg>