<?xml version="1.0" encoding="UTF-8"?>
<svg id="uuid-b3d90d09-c9c7-4219-902c-745beb164f1a" data-name="Content" xmlns="http://www.w3.org/2000/svg" viewBox="0 0 128 128">
  <g>
    <g>
      <path d="M25.7,10.27v9.51h-2.2v-3.9h-4.32v3.9h-2.2v-9.51h2.2v3.75h4.32v-3.75h2.2Z" style="fill: #00a3a4;"/>
      <path d="M27.26,16.13c0-2.2,1.7-3.76,4.02-3.76s4.01,1.56,4.01,3.76-1.68,3.76-4.01,3.76-4.02-1.56-4.02-3.76ZM33.14,16.13c0-1.26-.8-2.02-1.86-2.02s-1.87.76-1.87,2.02.82,2.02,1.87,2.02,1.86-.76,1.86-2.02Z" style="fill: #00a3a4;"/>
      <path d="M43.82,16.72h-5.53c.2.91.98,1.47,2.09,1.47.77,0,1.33-.23,1.83-.71l1.13,1.22c-.68.77-1.7,1.18-3.02,1.18-2.53,0-4.17-1.59-4.17-3.76s1.67-3.76,3.9-3.76,3.8,1.44,3.8,3.79c0,.16-.03.39-.04.57ZM38.27,15.49h3.6c-.15-.92-.84-1.52-1.79-1.52s-1.66.58-1.81,1.52Z" style="fill: #00a3a4;"/>
      <path d="M52.26,16.91l-1.02,1.01v1.86h-2.12v-10.08h2.12v5.71l3.1-2.93h2.53l-3.04,3.1,3.31,4.21h-2.57l-2.31-2.87Z" style="fill: #00a3a4;"/>
      <path d="M64.41,15.61v4.17h-1.98v-.91c-.39.67-1.15,1.02-2.23,1.02-1.71,0-2.73-.95-2.73-2.21s.91-2.19,3.14-2.19h1.68c0-.91-.54-1.44-1.68-1.44-.77,0-1.58.26-2.11.68l-.76-1.48c.8-.57,1.98-.88,3.15-.88,2.23,0,3.52,1.03,3.52,3.25ZM62.3,17.47v-.75h-1.45c-.99,0-1.3.37-1.3.86,0,.53.45.88,1.2.88.71,0,1.32-.33,1.56-.99Z" style="fill: #00a3a4;"/>
      <path d="M73.8,15.6v4.18h-2.12v-3.86c0-1.18-.54-1.73-1.48-1.73-1.02,0-1.75.62-1.75,1.97v3.61h-2.12v-7.31h2.02v.86c.57-.62,1.43-.96,2.42-.96,1.73,0,3.03,1.01,3.03,3.23Z" style="fill: #00a3a4;"/>
      <path d="M79.3,10.27c0-.67.53-1.18,1.32-1.18s1.32.49,1.32,1.14c0,.71-.53,1.22-1.32,1.22s-1.32-.52-1.32-1.18ZM79.56,12.47h2.12v7.31h-2.12v-7.31Z" style="fill: #00a3a4;"/>
      <path d="M86.79,16.91l-1.02,1.01v1.86h-2.12v-10.08h2.12v5.71l3.1-2.93h2.53l-3.04,3.1,3.31,4.21h-2.57l-2.31-2.87Z" style="fill: #00a3a4;"/>
    </g>
    <g>
      <path d="M16.9,38.45l.57-1.53c.23.16.54.26.9.26.53,0,.87-.34.87-1.06v-7.31h2.12v7.29c0,1.68-.99,2.76-2.76,2.76-.65,0-1.29-.12-1.7-.41ZM18.97,26.6c0-.67.53-1.18,1.32-1.18s1.32.49,1.32,1.14c0,.71-.53,1.22-1.32,1.22s-1.32-.52-1.32-1.18Z" style="fill: #00a3a4;"/>
      <path d="M30.43,33.06h-5.53c.2.91.98,1.47,2.09,1.47.77,0,1.33-.23,1.83-.71l1.13,1.22c-.68.77-1.7,1.18-3.02,1.18-2.53,0-4.17-1.59-4.17-3.76s1.67-3.76,3.9-3.76,3.8,1.44,3.8,3.79c0,.16-.03.39-.04.57ZM24.87,31.82h3.6c-.15-.92-.84-1.52-1.79-1.52s-1.66.58-1.81,1.52Z" style="fill: #00a3a4;"/>
      <path d="M43.2,31.93v4.18h-2.12v-3.86c0-1.18-.54-1.73-1.48-1.73-1.02,0-1.75.62-1.75,1.97v3.61h-2.12v-10.08h2.12v3.53c.57-.57,1.39-.87,2.32-.87,1.73,0,3.03,1.01,3.03,3.23Z" style="fill: #00a3a4;"/>
      <path d="M52.31,33.06h-5.53c.2.91.98,1.47,2.09,1.47.77,0,1.33-.23,1.83-.71l1.13,1.22c-.68.77-1.7,1.18-3.02,1.18-2.53,0-4.17-1.59-4.17-3.76s1.67-3.76,3.9-3.76,3.8,1.44,3.8,3.79c0,.16-.03.39-.04.57ZM46.75,31.82h3.6c-.15-.92-.84-1.52-1.79-1.52s-1.66.58-1.81,1.52Z" style="fill: #00a3a4;"/>
      <path d="M53.76,26.03h2.12v10.08h-2.12v-10.08Z" style="fill: #00a3a4;"/>
      <path d="M65.81,32.46c0,2.3-1.59,3.76-3.64,3.76-.91,0-1.66-.29-2.2-.88v3.41h-2.12v-9.94h2.02v.84c.53-.64,1.32-.95,2.3-.95,2.05,0,3.64,1.47,3.64,3.76ZM63.67,32.46c0-1.26-.8-2.02-1.86-2.02s-1.86.76-1.86,2.02.8,2.02,1.86,2.02,1.86-.76,1.86-2.02Z" style="fill: #00a3a4;"/>
      <path d="M74.34,33.06h-5.53c.2.91.98,1.47,2.09,1.47.77,0,1.33-.23,1.83-.71l1.13,1.22c-.68.77-1.7,1.18-3.02,1.18-2.53,0-4.17-1.59-4.17-3.76s1.67-3.76,3.9-3.76,3.8,1.44,3.8,3.79c0,.16-.03.39-.04.57ZM68.79,31.82h3.6c-.15-.92-.84-1.52-1.79-1.52s-1.66.58-1.81,1.52Z" style="fill: #00a3a4;"/>
      <path d="M83.27,31.93v4.18h-2.12v-3.86c0-1.18-.54-1.73-1.48-1.73-1.02,0-1.75.62-1.75,1.97v3.61h-2.12v-7.31h2.02v.86c.57-.62,1.43-.96,2.42-.96,1.73,0,3.03,1.01,3.03,3.23Z" style="fill: #00a3a4;"/>
      <path d="M88.68,29.31c0-.67-.58-1.09-1.47-1.09s-1.53.38-1.97,1.01l-1.64-.96c.73-1.11,2.01-1.82,3.84-1.82,2.04,0,3.45.91,3.45,2.51,0,2.17-2.28,2.42-2.28,3.86h-2.05c0-1.9,2.12-2.32,2.12-3.5ZM86.28,34.99c0-.69.54-1.21,1.3-1.21s1.3.52,1.3,1.21-.54,1.24-1.3,1.24-1.3-.56-1.3-1.24Z" style="fill: #00a3a4;"/>
    </g>
  </g>
  <path d="M105.36,60.03c-.09-.06-8.75-5.7-7.82-13.99,4.31-.19,7.75-4.07,7.75-8.81V10.65c0-4.86-3.63-8.82-8.09-8.82H11.43C6.97,1.83,3.34,5.79,3.34,10.65v26.59c0,4.86,3.63,8.82,8.09,8.82h70.96c.25,1.14,1.04,3.75,3.38,6.54,5.01,5.98,13.22,8.03,19.22,8.69.02,0,.04,0,.06,0,.27,0,.5-.19.59-.46.09-.3-.02-.63-.28-.79ZM86.74,51.76c-2.82-3.33-3.23-6.43-3.23-6.46-.04-.31-.26-.54-.53-.58h0s-71.55,0-71.55,0c-3.78,0-6.85-3.35-6.85-7.47V10.65c0-4.12,3.07-7.47,6.85-7.47h85.77c3.78,0,6.85,3.35,6.85,7.47v26.59c0,4.12-3.07,7.47-6.85,7.47v.04s-.06-.02-.09-.03c-.34-.06-.66.18-.72.55-.64,3.96.61,7.98,3.61,11.62.92,1.11,1.86,2.03,2.66,2.72-8.83-1.45-13.51-5.01-15.93-7.85Z" style="fill: #00a3a4;"/>
</svg>