<?xml version="1.0" encoding="UTF-8"?>
<svg id="uuid-34d4528a-8835-401f-a325-4356c181304a" data-name="Content" xmlns="http://www.w3.org/2000/svg" viewBox="0 0 128 128">
  <path d="M103.59,66.66H10.81c-4.04,0-7.33-3.29-7.33-7.33v-27.99c0-4.04,3.29-7.33,7.33-7.33h92.78c4.04,0,7.33,3.29,7.33,7.33v27.99c0,4.04-3.29,7.33-7.33,7.33ZM10.81,25.12c-3.43,0-6.21,2.79-6.21,6.21v27.99c0,3.43,2.79,6.21,6.21,6.21h92.78c3.43,0,6.21-2.79,6.21-6.21v-27.99c0-3.43-2.79-6.21-6.21-6.21H10.81Z" style="fill: #0099c6;"/>
  <path d="M101.15,28.93h-23.31c-2.57,0-4.65,2.08-4.65,4.65v23.25c0,2.57,2.08,4.65,4.65,4.65h23.31c2.57,0,4.65-2.08,4.65-4.65v-23.25c0-2.57-2.08-4.65-4.65-4.65ZM94.03,38.29c2.23,0,4.05,1.81,4.05,4.05,0,.63-.51,1.14-1.14,1.14s-1.14-.51-1.14-1.14c0-.97-.79-1.76-1.76-1.76s-1.76.79-1.76,1.76c0,.63-.51,1.14-1.14,1.14s-1.14-.51-1.14-1.14c0-2.23,1.81-4.05,4.05-4.05ZM85.03,38.29c2.23,0,4.05,1.81,4.05,4.05,0,.63-.51,1.14-1.14,1.14s-1.14-.51-1.14-1.14c0-.97-.79-1.76-1.76-1.76s-1.76.79-1.76,1.76c0,.63-.51,1.14-1.14,1.14s-1.14-.51-1.14-1.14c0-2.23,1.81-4.05,4.05-4.05ZM100.54,48.04c-1.38,1.44-3.01,2.58-4.84,3.37-1.89.82-3.9,1.24-5.98,1.24s-4.09-.42-5.98-1.24c-1.83-.8-3.45-1.93-4.84-3.37-.44-.46-.42-1.18.03-1.62.46-.44,1.18-.42,1.62.03,1.17,1.22,2.55,2.19,4.1,2.86,1.6.7,3.3,1.05,5.07,1.05s3.47-.35,5.07-1.05c1.55-.67,2.93-1.64,4.1-2.86.44-.46,1.16-.47,1.62-.03.46.44.47,1.16.03,1.62Z" style="fill: #0099c6;"/>
  <g>
    <path d="M22.33,48.13c0,1.96-1.55,3.09-4.53,3.09h-5.85v-11.32h5.53c2.83,0,4.28,1.18,4.28,2.94,0,1.13-.58,2-1.5,2.49,1.26.4,2.07,1.37,2.07,2.8ZM14.55,41.87v2.67h2.6c1.28,0,1.97-.45,1.97-1.34s-.7-1.33-1.97-1.33h-2.6ZM19.69,47.86c0-.95-.73-1.41-2.09-1.41h-3.06v2.8h3.06c1.36,0,2.09-.42,2.09-1.39Z" style="fill: #0099c6;"/>
    <path d="M29.54,42.39v2.33c-.21-.02-.37-.03-.57-.03-1.39,0-2.31.76-2.31,2.43v4.11h-2.52v-8.7h2.41v1.15c.61-.84,1.65-1.28,2.99-1.28Z" style="fill: #0099c6;"/>
    <path d="M30.73,39.9c0-.79.63-1.41,1.57-1.41s1.57.58,1.57,1.36c0,.84-.63,1.46-1.57,1.46s-1.57-.61-1.57-1.41ZM31.04,42.52h2.52v8.7h-2.52v-8.7Z" style="fill: #0099c6;"/>
    <path d="M43.6,46.26v4.96h-2.36v-1.08c-.47.79-1.37,1.21-2.65,1.21-2.04,0-3.25-1.13-3.25-2.64s1.08-2.6,3.73-2.6h2c0-1.08-.65-1.71-2-1.71-.92,0-1.88.31-2.51.81l-.91-1.76c.95-.68,2.36-1.05,3.75-1.05,2.65,0,4.19,1.23,4.19,3.86ZM41.08,48.47v-.89h-1.73c-1.18,0-1.55.44-1.55,1.02,0,.63.53,1.05,1.42,1.05.84,0,1.57-.39,1.86-1.18Z" style="fill: #0099c6;"/>
    <path d="M54.77,46.24v4.98h-2.52v-4.59c0-1.41-.65-2.05-1.76-2.05-1.21,0-2.09.74-2.09,2.34v4.3h-2.52v-8.7h2.41v1.02c.68-.74,1.7-1.15,2.88-1.15,2.05,0,3.61,1.2,3.61,3.85Z" style="fill: #0099c6;"/>
  </g>
</svg>