<?xml version="1.0" encoding="UTF-8"?>
<svg id="uuid-fc75a2f4-52a0-4f76-9307-61342097e22e" data-name="Laag 2" xmlns="http://www.w3.org/2000/svg" xmlns:xlink="http://www.w3.org/1999/xlink" viewBox="0 0 280 231">
  <defs>
    <linearGradient id="uuid-7a71988d-c036-4f7d-8a8e-d623f2d1bead" data-name="Nieuwe verloopstaal 6" x1="87.63" y1="98.19" x2="216.49" y2="23.79" gradientUnits="userSpaceOnUse">
      <stop offset="0" stop-color="#2ea186"/>
      <stop offset="1" stop-color="#0f92db"/>
    </linearGradient>
  </defs>
  <g>
    <g>
      <path d="M63.87,163.02l-.05-24.69-12.24,20.44h-3.09l-12.24-20.12v24.37h-6.6v-37.25h5.69l14.79,24.69,14.53-24.69h5.69l.05,37.25h-6.55Z" style="fill: #fff;"/>
      <path d="M108.42,157.21v5.8h-27.94v-37.25h27.19v5.8h-20.28v9.69h17.99v5.69h-17.99v10.27h21.02Z" style="fill: #fff;"/>
      <path d="M149.23,125.76v37.25h-5.69l-20.54-25.23v25.23h-6.87v-37.25h5.69l20.54,25.23v-25.23h6.87Z" style="fill: #fff;"/>
      <path d="M166.8,131.62h-12.35v-5.85h31.61v5.85h-12.35v31.4h-6.92v-31.4Z" style="fill: #fff;"/>
      <path d="M213.58,154.39h-18.63l-3.67,8.62h-7.13l16.76-37.25h6.81l16.82,37.25h-7.24l-3.73-8.62ZM211.29,148.97l-7.02-16.29-6.97,16.29h14Z" style="fill: #fff;"/>
      <path d="M229.27,125.76h6.92v31.4h19.48v5.85h-26.4v-37.25Z" style="fill: #fff;"/>
    </g>
    <g>
      <path d="M63.06,170.89v19.37h-3.6v-8.3h-10.02v8.3h-3.6v-19.37h3.6v8h10.02v-8h3.6Z" style="fill: #fff;"/>
      <path d="M87.97,183.42v6.83h-3.6v-6.78l-7.61-12.59h3.85l5.67,9.44,5.73-9.44h3.54l-7.58,12.53Z" style="fill: #fff;"/>
      <path d="M121.64,180.35h3.4v7.72c-2.02,1.63-4.84,2.46-7.58,2.46-6,0-10.43-4.18-10.43-9.96s4.43-9.96,10.49-9.96c3.24,0,5.95,1.08,7.78,3.15l-2.27,2.21c-1.52-1.52-3.27-2.21-5.34-2.21-4.12,0-7.03,2.79-7.03,6.81s2.91,6.81,7,6.81c1.38,0,2.74-.28,3.98-1v-6.03Z" style="fill: #fff;"/>
      <path d="M141.13,170.89h3.6v19.37h-3.6v-19.37Z" style="fill: #fff;"/>
      <path d="M175.83,187.24v3.02h-14.53v-19.37h14.14v3.02h-10.54v5.04h9.35v2.96h-9.35v5.34h10.93Z" style="fill: #fff;"/>
      <path d="M208.4,170.89v19.37h-2.96l-10.68-13.12v13.12h-3.57v-19.37h2.96l10.68,13.12v-13.12h3.57Z" style="fill: #fff;"/>
      <path d="M239.47,187.24v3.02h-14.53v-19.37h14.14v3.02h-10.54v5.04h9.35v2.96h-9.35v5.34h10.93Z" style="fill: #fff;"/>
    </g>
  </g>
  <path d="M186.56,52.57s0,0-.01,0c-.78-11.77-10.59-21.11-22.56-21.11-1.52,0-3.03.16-4.5.46-5-6.28-12.66-10.12-21.06-10.12-6.6,0-12.86,2.43-17.69,6.64-2.63-1.09-5.41-1.65-8.28-1.65-11.11,0-20.28,8.44-21.46,19.24-10.12,2.63-17.13,11.65-17.13,22.19,0,12.65,10.29,22.93,22.93,22.93,4.05,0,7.98-1.05,11.45-3.06,4.44,8.16,13.09,13.65,22.95,13.65,1.1,0,2.19-.07,3.26-.2,3.09,8.26,11.9,13.9,22.04,13.9,11.57,0,21.45-9.25,22.52-20.63,4.83-.98,9.26-3.61,12.59-7.52,3.63-4.26,5.63-9.66,5.63-15.19,0-8.27-3.99-15.57-10.68-19.53ZM179.02,90.66c-.75-7.92-5.69-14.96-13.03-18.3-1.02-.46-2.22-.01-2.68,1s-.01,2.22,1,2.68c6.53,2.97,10.76,9.53,10.76,16.7,0,10.11-8.51,18.64-18.58,18.64-8.2,0-15.31-4.31-18.01-10.69,5.85-1.7,10.99-5.41,14.47-10.63.62-.93.37-2.19-.56-2.81-.93-.62-2.19-.37-2.81.56-4.11,6.17-10.98,9.86-18.38,9.86-11.68,0-21.36-9.13-22.03-20.78-.06-1.12-1.02-1.98-2.14-1.9-1.12.06-1.97,1.02-1.9,2.14.14,2.52.65,4.95,1.46,7.22-2.95,1.79-6.31,2.73-9.79,2.73-10.41,0-18.89-8.47-18.89-18.89,0-8.28,5.25-15.43,12.98-17.94.11,3.35.57,7.13,2.31,10.02.38.63,1.05.98,1.74.98.35,0,.71-.09,1.04-.29.96-.58,1.27-1.82.69-2.78-1.58-2.62-1.76-6.86-1.76-9.82,0-9.67,7.87-17.54,17.54-17.54,1.78,0,3.52.26,5.19.78-1,1.21-1.9,2.52-2.69,3.91,0,0,0,0,0,0-1.91,3.39-3.04,7.07-3.36,10.95-.09,1.11.74,2.09,1.85,2.18.06,0,.11,0,.17,0,1.04,0,1.93-.8,2.01-1.86.27-3.3,1.23-6.42,2.85-9.3,0,0,0,0,0,0,4.05-7.2,11.7-11.67,19.95-11.67,9.98,0,18.73,6.38,21.78,15.87.28.86,1.07,1.41,1.93,1.41.21,0,.41-.03.62-.1,1.06-.34,1.65-1.48,1.31-2.55-.55-1.71-1.26-3.33-2.1-4.85.67-.07,1.35-.12,2.03-.12,10.24,0,18.56,8.33,18.56,18.56,0,3.36-.91,6.66-2.63,9.53-.57.96-.26,2.2.7,2.78.33.2.68.29,1.04.29.69,0,1.36-.35,1.74-.98,1.53-2.56,2.53-5.39,2.96-8.34,4.31,3.4,6.83,8.76,6.83,14.76,0,8.71-6.08,16.5-14.17,18.56ZM123.21,55.74c0-3.83,3.12-6.95,6.95-6.95s6.95,3.12,6.95,6.95c0,1.12-.91,2.02-2.02,2.02s-2.02-.91-2.02-2.02c0-1.6-1.3-2.9-2.9-2.9s-2.9,1.3-2.9,2.9c0,1.12-.91,2.02-2.02,2.02s-2.02-.91-2.02-2.02ZM138.24,55.74c0-3.83,3.12-6.95,6.95-6.95s6.95,3.12,6.95,6.95c0,1.12-.91,2.02-2.02,2.02s-2.02-.91-2.02-2.02c0-1.6-1.3-2.9-2.9-2.9s-2.9,1.3-2.9,2.9c0,1.12-.91,2.02-2.02,2.02s-2.02-.91-2.02-2.02ZM156.38,62.61c.81.77.83,2.05.06,2.86-4.86,5.07-11.4,7.87-18.43,7.87s-13.56-2.79-18.42-7.86c-.77-.81-.75-2.09.06-2.86.81-.77,2.09-.75,2.86.06,4.09,4.27,9.59,6.62,15.5,6.62s11.41-2.35,15.5-6.62c.77-.81,2.05-.83,2.86-.06ZM187.9,35.23c-1.89,0-3.43,1.54-3.43,3.43s1.54,3.43,3.43,3.43,3.43-1.54,3.43-3.43-1.54-3.43-3.43-3.43ZM187.9,40.74c-1.15,0-2.08-.93-2.08-2.08s.93-2.08,2.08-2.08,2.08.93,2.08,2.08-.93,2.08-2.08,2.08ZM194.25,46.61c1.4,0,2.53-1.14,2.53-2.53s-1.14-2.53-2.53-2.53-2.53,1.14-2.53,2.53,1.14,2.53,2.53,2.53ZM194.25,42.89c.65,0,1.18.53,1.18,1.18s-.53,1.18-1.18,1.18-1.18-.53-1.18-1.18.53-1.18,1.18-1.18ZM190.65,48.08c-.74,0-1.34.6-1.34,1.34s.6,1.34,1.34,1.34,1.34-.6,1.34-1.34-.6-1.34-1.34-1.34ZM190.65,49.85c-.24,0-.44-.2-.44-.44s.2-.44.44-.44.44.2.44.44-.2.44-.44.44ZM188.19,16.16c-.51-1.9-2.09-3.38-4.01-3.78-.36-.08-.6-.43-.52-.8.08-.36.43-.6.8-.52,2.42.5,4.4,2.36,5.04,4.75.1.36-.12.73-.48.83-.06.02-.12.02-.18.02-.3,0-.57-.2-.65-.5ZM197.44,14.17c-2.16,0-4.22.61-6.01,1.76-.75-3.91-4.19-6.87-8.32-6.87-4.67,0-8.47,3.8-8.47,8.47s3.8,8.47,8.47,8.47c1.12,0,2.19-.22,3.17-.62.03,6.13,5.02,11.11,11.16,11.11s11.16-5.01,11.16-11.16-5.01-11.16-11.16-11.16ZM175.99,17.53c0-3.93,3.2-7.12,7.12-7.12s7.12,3.2,7.12,7.12-3.2,7.12-7.12,7.12-7.12-3.2-7.12-7.12ZM197.44,35.14c-5.41,0-9.81-4.4-9.81-9.81,0-.22.01-.44.03-.66,2.36-1.51,3.93-4.14,3.93-7.14,0-.02,0-.04,0-.07,1.7-1.27,3.72-1.95,5.86-1.95,5.41,0,9.81,4.4,9.81,9.81s-4.4,9.81-9.81,9.81ZM205.32,23.9c-.06.02-.12.02-.18.02-.3,0-.57-.2-.65-.5-.71-2.63-2.9-4.69-5.57-5.24-.36-.08-.6-.43-.52-.8.08-.37.43-.6.8-.52,3.17.65,5.76,3.09,6.6,6.21.1.36-.12.73-.48.83ZM190.99,7.57c1.3,0,2.36-1.06,2.36-2.36s-1.06-2.36-2.36-2.36-2.36,1.06-2.36,2.36,1.06,2.36,2.36,2.36ZM190.99,4.21c.56,0,1.01.45,1.01,1.01s-.45,1.01-1.01,1.01-1.01-.45-1.01-1.01.45-1.01,1.01-1.01ZM203.06,12.46c2.19,0,3.97-1.78,3.97-3.97s-1.78-3.97-3.97-3.97-3.97,1.78-3.97,3.97,1.78,3.97,3.97,3.97ZM203.06,5.86c1.45,0,2.63,1.18,2.63,2.63s-1.18,2.63-2.63,2.63-2.63-1.18-2.63-2.63,1.18-2.63,2.63-2.63Z" style="fill: url(#uuid-7a71988d-c036-4f7d-8a8e-d623f2d1bead);"/>
  <g>
    <rect x="-22" y="208.43" width="324" height="86.74" style="fill: none;"/>
    <path d="M73.17,215.43c0,3.71-2.75,6-7.17,6h-3.8v4.86h-3.13v-16.85h6.93c4.43,0,7.17,2.26,7.17,6ZM70.01,215.43c0-2.12-1.42-3.35-4.17-3.35h-3.66v6.69h3.66c2.75,0,4.17-1.23,4.17-3.35Z" style="fill: #fff;"/>
    <path d="M80.14,209.44h3.13v14.21h8.81v2.65h-11.94v-16.85Z" style="fill: #fff;"/>
    <path d="M109.47,222.39h-8.43l-1.66,3.9h-3.23l7.58-16.85h3.08l7.61,16.85h-3.27l-1.69-3.9ZM108.43,219.94l-3.18-7.37-3.15,7.37h6.33Z" style="fill: #fff;"/>
    <path d="M122.99,212.09h-5.59v-2.65h14.3v2.65h-5.59v14.21h-3.13v-14.21Z" style="fill: #fff;"/>
    <path d="M141.05,212.06v5.13h8.14v2.65h-8.14v6.45h-3.13v-16.85h12.3v2.62h-9.17Z" style="fill: #fff;"/>
    <path d="M155.71,217.87c0-4.98,3.85-8.67,9.08-8.67s9.08,3.66,9.08,8.67-3.85,8.67-9.08,8.67-9.08-3.68-9.08-8.67ZM170.71,217.87c0-3.44-2.53-5.92-5.92-5.92s-5.92,2.48-5.92,5.92,2.53,5.92,5.92,5.92,5.92-2.48,5.92-5.92Z" style="fill: #fff;"/>
    <path d="M192.06,226.29l-3.44-4.94c-.22.02-.43.02-.65.02h-3.8v4.91h-3.13v-16.85h6.93c4.43,0,7.17,2.26,7.17,6,0,2.55-1.3,4.43-3.59,5.32l3.88,5.54h-3.37ZM187.82,212.09h-3.66v6.72h3.66c2.75,0,4.17-1.25,4.17-3.37s-1.42-3.35-4.17-3.35Z" style="fill: #fff;"/>
    <path d="M217.97,226.29l-.02-11.17-5.54,9.25h-1.4l-5.54-9.1v11.03h-2.99v-16.85h2.58l6.69,11.17,6.57-11.17h2.58l.02,16.85h-2.96Z" style="fill: #fff;"/>
  </g>
  <line x1="18.38" y1="199.75" x2="260.15" y2="199.2" style="fill: none; stroke: #fff; stroke-miterlimit: 10;"/>
  <g>
    <path d="M258.35,113.38c0,1.14-.91,1.81-2.65,1.81h-3.42v-6.62h3.24c1.66,0,2.51.69,2.51,1.72,0,.66-.34,1.17-.88,1.46.74.24,1.21.8,1.21,1.64ZM253.8,109.72v1.56h1.52c.75,0,1.15-.26,1.15-.79s-.41-.78-1.15-.78h-1.52ZM256.81,113.22c0-.56-.43-.82-1.22-.82h-1.79v1.64h1.79c.79,0,1.22-.25,1.22-.81Z" style="fill: #fff;"/>
    <path d="M264.64,113.95v1.23h-5.13v-6.62h5v1.23h-3.48v1.44h3.07v1.19h-3.07v1.53h3.6Z" style="fill: #fff;"/>
    <path d="M267.24,109.81h-2.12v-1.25h5.77v1.25h-2.12v5.37h-1.53v-5.37Z" style="fill: #fff;"/>
    <path d="M275.74,113.76h-3.07l-.59,1.42h-1.57l2.95-6.62h1.51l2.96,6.62h-1.61l-.59-1.42ZM275.26,112.6l-1.05-2.54-1.05,2.54h2.1Z" style="fill: #fff;"/>
  </g>
  <rect x="-22" y="-30.57" width="324" height="86.74" style="fill: none;"/>
</svg>