<?xml version="1.0" encoding="UTF-8"?>
<svg id="uuid-d75aee8f-8c31-48f6-ac9c-2bbbd8f2f834" data-name="Content" xmlns="http://www.w3.org/2000/svg" viewBox="0 0 128 128">
  <path d="M87.19,80.82l-14.45-2.17c10.31-8.17,16.39-20.65,16.39-33.88C89.12,20.93,69.73,1.54,45.9,1.54S2.67,20.93,2.67,44.77c0,14.04,6.86,27.25,18.34,35.35,1.13.8,2.7.53,3.5-.61.8-1.13.53-2.7-.61-3.5-10.15-7.16-16.21-18.84-16.21-31.24C7.7,23.71,24.84,6.57,45.9,6.57s38.2,17.13,38.2,38.2c0,11.82-5.49,22.96-14.79,30.18l2.29-15.22c.21-1.37-.74-2.65-2.11-2.86-1.37-.21-2.65.74-2.86,2.11l-3.11,20.71c-.1.66.07,1.33.46,1.87l.1.14c.4.54.99.89,1.65.99l20.71,3.11c.13.02.25.03.38.03,1.22,0,2.29-.89,2.48-2.14.21-1.37-.74-2.65-2.11-2.86Z" style="fill: #0099c6;"/>
</svg>