<?xml version="1.0" encoding="UTF-8"?>
<svg id="uuid-9c61b258-0d1a-4cc5-bbeb-15b7f5e4a8d1" data-name="Content" xmlns="http://www.w3.org/2000/svg" viewBox="0 0 128 128">
  <path d="M9.35,5.36v17.85h-2.52V7.57H2.79v-2.22h6.55Z" style="fill: #2ea186;"/>
  <path d="M13.25,14.28c0-5.81,3.11-9.13,7.29-9.13s7.27,3.31,7.27,9.13-3.11,9.13-7.27,9.13-7.29-3.31-7.29-9.13ZM25.26,14.28c0-4.56-1.94-6.86-4.72-6.86s-4.74,2.3-4.74,6.86,1.94,6.86,4.74,6.86,4.72-2.3,4.72-6.86Z" style="fill: #2ea186;"/>
  <path d="M35.71,5.36v17.85h-2.52V7.57h-4.03v-2.22h6.55Z" style="fill: #2ea186;"/>
  <path d="M39.61,14.28c0-5.81,3.11-9.13,7.29-9.13s7.27,3.31,7.27,9.13-3.11,9.13-7.27,9.13-7.29-3.31-7.29-9.13ZM51.62,14.28c0-4.56-1.94-6.86-4.72-6.86s-4.74,2.3-4.74,6.86,1.94,6.86,4.74,6.86,4.72-2.3,4.72-6.86Z" style="fill: #2ea186;"/>
  <path d="M56.62,14.28c0-5.81,3.11-9.13,7.29-9.13s7.27,3.31,7.27,9.13-3.11,9.13-7.27,9.13-7.29-3.31-7.29-9.13ZM68.63,14.28c0-4.56-1.94-6.86-4.72-6.86s-4.74,2.3-4.74,6.86,1.94,6.86,4.74,6.86,4.72-2.3,4.72-6.86Z" style="fill: #2ea186;"/>
  <path d="M3.81,44.88c0-5.81,3.11-9.13,7.29-9.13s7.27,3.31,7.27,9.13-3.11,9.13-7.27,9.13-7.29-3.31-7.29-9.13ZM15.83,44.88c0-4.56-1.94-6.86-4.72-6.86s-4.74,2.3-4.74,6.86,1.94,6.86,4.74,6.86,4.72-2.3,4.72-6.86Z" style="fill: #2ea186;"/>
  <path d="M26.28,35.95v17.85h-2.52v-15.63h-4.03v-2.22h6.55Z" style="fill: #2ea186;"/>
  <path d="M30.18,44.88c0-5.81,3.11-9.13,7.29-9.13s7.27,3.31,7.27,9.13-3.11,9.13-7.27,9.13-7.29-3.31-7.29-9.13ZM42.19,44.88c0-4.56-1.94-6.86-4.72-6.86s-4.74,2.3-4.74,6.86,1.94,6.86,4.74,6.86,4.72-2.3,4.72-6.86Z" style="fill: #2ea186;"/>
  <path d="M52.64,35.95v17.85h-2.52v-15.63h-4.03v-2.22h6.55Z" style="fill: #2ea186;"/>
  <path d="M56.55,44.88c0-5.81,3.11-9.13,7.29-9.13s7.27,3.31,7.27,9.13-3.11,9.13-7.27,9.13-7.29-3.31-7.29-9.13ZM68.56,44.88c0-4.56-1.94-6.86-4.72-6.86s-4.74,2.3-4.74,6.86,1.94,6.86,4.74,6.86,4.72-2.3,4.72-6.86Z" style="fill: #2ea186;"/>
  <path d="M3.81,75.48c0-5.81,3.11-9.13,7.29-9.13s7.27,3.31,7.27,9.13-3.11,9.13-7.27,9.13-7.29-3.31-7.29-9.13ZM15.83,75.48c0-4.56-1.94-6.86-4.72-6.86s-4.74,2.3-4.74,6.86,1.94,6.86,4.74,6.86,4.72-2.3,4.72-6.86Z" style="fill: #2ea186;"/>
  <path d="M26.28,66.55v17.85h-2.52v-15.63h-4.03v-2.22h6.55Z" style="fill: #2ea186;"/>
  <path d="M35.71,66.55v17.85h-2.52v-15.63h-4.03v-2.22h6.55Z" style="fill: #2ea186;"/>
  <path d="M39.61,75.48c0-5.81,3.11-9.13,7.29-9.13s7.27,3.31,7.27,9.13-3.11,9.13-7.27,9.13-7.29-3.31-7.29-9.13ZM51.62,75.48c0-4.56-1.94-6.86-4.72-6.86s-4.74,2.3-4.74,6.86,1.94,6.86,4.74,6.86,4.72-2.3,4.72-6.86Z" style="fill: #2ea186;"/>
  <path d="M56.62,75.48c0-5.81,3.11-9.13,7.29-9.13s7.27,3.31,7.27,9.13-3.11,9.13-7.27,9.13-7.29-3.31-7.29-9.13ZM68.63,75.48c0-4.56-1.94-6.86-4.72-6.86s-4.74,2.3-4.74,6.86,1.94,6.86,4.74,6.86,4.72-2.3,4.72-6.86Z" style="fill: #2ea186;"/>
</svg>