<?xml version="1.0" encoding="UTF-8"?>
<svg id="uuid-8819d019-f300-4f16-b92e-f850ab2d348f" data-name="Content" xmlns="http://www.w3.org/2000/svg" viewBox="0 0 128 128">
  <rect x="4.82" y="3.47" width="86.49" height="89.18" rx="5.67" ry="5.67" style="fill: #fff; opacity: .2;"/>
  <rect x="23.02" y="1.87" width="13.19" height="91.41" transform="translate(11.2 -5.35) rotate(12.72)" style="fill: #fff; opacity: .2;"/>
  <path d="M85.35,94H10.96c-4.39,0-7.96-3.57-7.96-7.96V9.57c0-4.39,3.57-7.96,7.96-7.96h74.39c4.39,0,7.96,3.57,7.96,7.96v76.47c0,4.39-3.57,7.96-7.96,7.96ZM10.96,4.5c-2.8,0-5.07,2.28-5.07,5.07v76.47c0,2.8,2.28,5.07,5.07,5.07h74.39c2.8,0,5.07-2.28,5.07-5.07V9.57c0-2.8-2.28-5.07-5.07-5.07H10.96Z" style="fill: #2ea186;"/>
</svg>