<?xml version="1.0" encoding="UTF-8"?>
<svg id="uuid-b5e7adef-bdf1-411d-bd2c-bb831d7abca4" data-name="Content" xmlns="http://www.w3.org/2000/svg" viewBox="0 0 128 128">
  <g>
    <path d="M54.84,81.24c-1.25,0-2.52-.29-3.79-.87-2.44-1.11-4.87-3.33-7.05-6.4-.57-.8-1.1-1.57-1.62-2.31-2.87-4.13-4.94-7.12-7.12-7.12s-4.25,2.99-7.12,7.12c-.51.74-1.05,1.51-1.62,2.31-2.18,3.07-4.62,5.29-7.05,6.4-2.8,1.28-5.62,1.14-8.16-.39-3.35-2.02-7.08-5.92-7.74-9.46-.26-1.41,0-2.67.75-3.64,1.63-2.11,3.83-2.04,5.59-1.98,1.07.03,2,.06,2.58-.37,1.92-1.41,7.47-7.14,7.47-12.15,0-5.42-.91-8.13-6.53-10.84-4.1-1.98-7.07-4.06-8.85-6.19-2.22-2.66-2.69-5.46-1.4-8.31.77-1.71,2.21-2.93,4.16-3.54,4.04-1.26,9.39.31,11.89,1.82h0c1.54.93,4.33,1.45,6.31,1.59-2.82-2.3-4.79-6.67-4.79-10.97,0-8,6.51-14.5,14.5-14.5s14.5,6.51,14.5,14.5c0,4.28-2.05,8.64-5.1,11.12,1.95-.14,4.94-.72,6.63-1.74,2.65-1.6,7.44-2.68,11.12-1.53,2.08.65,3.61,1.95,4.44,3.78,1.31,2.89.97,5.59-.99,8.04-1.66,2.07-4.54,4.01-8.8,5.93-5.57,2.52-6.51,5.37-6.51,10.83,0,5.01,5.56,10.74,7.47,12.15.58.43,1.51.4,2.58.37,1.76-.06,3.96-.13,5.59,1.98.75.97,1.01,2.23.75,3.64-.66,3.54-4.39,7.44-7.74,9.46-1.39.84-2.86,1.26-4.37,1.26ZM35.27,62.4c3.3,0,5.64,3.37,8.88,8.04.51.74,1.04,1.5,1.6,2.29,1.92,2.71,6.97,8.67,12.36,5.41,3.37-2.04,6.27-5.49,6.74-8.02.15-.81.04-1.46-.33-1.94-.96-1.25-2.29-1.2-3.83-1.15-1.35.04-2.74.09-3.92-.78-2.23-1.64-8.34-7.98-8.34-13.88,0-2.9.22-5.26,1.31-7.36,1.16-2.23,3.21-3.95,6.45-5.42,3.95-1.78,6.57-3.52,8.01-5.32,1.46-1.82,1.69-3.67.71-5.82-.58-1.27-1.63-2.15-3.13-2.62-2.93-.91-7.15-.02-9.38,1.32-2.68,1.62-8.87,2.64-10.52,1.73-.46-.26-.73-.68-.74-1.17-.02-.91.89-1.45,1.23-1.66,3.04-1.83,5.25-6.08,5.25-10.12,0-6.82-5.55-12.36-12.36-12.36s-12.36,5.55-12.36,12.36c0,4.24,2.27,8.66,5.17,10.07.39.19,1.29.63,1.33,1.52.02.47-.23.91-.67,1.17-1.5.89-7.78.16-10.6-1.55-2.19-1.32-6.93-2.61-10.15-1.61-1.38.43-2.31,1.21-2.84,2.37-1.78,3.94,1.32,7.88,9.23,11.69,6.55,3.16,7.74,6.78,7.74,12.77s-6.12,12.24-8.34,13.88c-1.18.87-2.58.83-3.92.78-1.54-.05-2.86-.09-3.83,1.15-.37.48-.48,1.13-.33,1.94.47,2.54,3.37,5.98,6.74,8.02,5.38,3.25,10.43-2.7,12.36-5.41.56-.79,1.09-1.56,1.6-2.29,3.24-4.67,5.58-8.04,8.88-8.04Z" style="fill: #00a3a4;"/>
    <path d="M35.27,42.77c-2.44,0-4.43-1.99-4.43-4.43s1.99-4.43,4.43-4.43,4.43,1.99,4.43,4.43-1.99,4.43-4.43,4.43ZM35.27,36.04c-1.26,0-2.29,1.03-2.29,2.29s1.03,2.29,2.29,2.29,2.29-1.03,2.29-2.29-1.03-2.29-2.29-2.29Z" style="fill: #00a3a4;"/>
    <path d="M35.27,54.44c-2.44,0-4.43-1.99-4.43-4.43s1.99-4.43,4.43-4.43,4.43,1.99,4.43,4.43-1.99,4.43-4.43,4.43ZM35.27,47.71c-1.26,0-2.29,1.03-2.29,2.29s1.03,2.29,2.29,2.29,2.29-1.03,2.29-2.29-1.03-2.29-2.29-2.29Z" style="fill: #00a3a4;"/>
    <path d="M12.12,40.73c-.28,0-.56-.11-.77-.33-.41-.43-.4-1.1.03-1.51.77-.74.76-1.21.73-2.05-.02-.69-.05-1.56.43-2.56.68-1.42,1.76-2.01,2.62-2.48.67-.37,1.06-.6,1.27-1.02.19-.38.15-.93.11-1.52-.08-1.14-.22-3.27,2.61-3.73.58-.1,1.13.3,1.23.88.1.58-.3,1.13-.88,1.23-.91.15-.91.25-.82,1.48.05.77.12,1.73-.34,2.63-.52,1.03-1.39,1.51-2.16,1.93-.72.39-1.34.73-1.72,1.53-.25.53-.24.99-.22,1.56.03,1.01.07,2.26-1.39,3.66-.21.2-.47.3-.74.3Z" style="fill: #00a3a4;"/>
    <path d="M27.32,72.05c-.28,0-.57-.11-.78-.34-1.16-1.23-2.09-1.31-3.26-1.4-1.09-.09-2.33-.19-3.66-1.23-1.38-1.07-1.73-2.32-2.01-3.33-.31-1.12-.47-1.68-1.87-2.01-.58-.14-.93-.71-.79-1.29.14-.58.71-.93,1.29-.79,2.63.63,3.08,2.23,3.44,3.52.24.85.44,1.58,1.26,2.22.83.64,1.58.7,2.53.78,1.3.11,2.92.24,4.64,2.07.41.43.38,1.11-.05,1.51-.21.19-.47.29-.73.29Z" style="fill: #00a3a4;"/>
    <path d="M58.41,40.73c-.27,0-.53-.1-.74-.3-1.46-1.4-1.42-2.65-1.39-3.66.02-.58.03-1.04-.22-1.56-.38-.8-1-1.14-1.72-1.53-.77-.42-1.63-.89-2.16-1.93-.46-.91-.39-1.86-.34-2.63.08-1.22.09-1.32-.82-1.48-.58-.1-.98-.65-.88-1.23.1-.58.65-.98,1.23-.88,2.83.47,2.69,2.59,2.61,3.73-.04.59-.08,1.14.11,1.52.21.42.6.65,1.27,1.02.87.47,1.94,1.06,2.62,2.48.48,1,.45,1.86.43,2.56-.03.84-.04,1.31.73,2.05.43.41.44,1.09.03,1.51-.21.22-.49.33-.77.33Z" style="fill: #00a3a4;"/>
    <path d="M43.21,72.05c-.26,0-.53-.1-.73-.29-.43-.41-.45-1.08-.05-1.51,1.72-1.83,3.34-1.96,4.64-2.07.95-.08,1.7-.14,2.53-.78.82-.63,1.02-1.37,1.26-2.22.36-1.29.81-2.89,3.44-3.52.58-.14,1.15.22,1.29.79.14.58-.22,1.15-.79,1.29-1.4.33-1.56.9-1.87,2.01-.28,1.01-.63,2.27-2.01,3.33-1.33,1.03-2.57,1.13-3.66,1.23-1.18.1-2.11.18-3.26,1.4-.21.22-.49.34-.78.34Z" style="fill: #00a3a4;"/>
    <path d="M12.52,30.55c-.59,0-1.07-.48-1.07-1.07v-.61c0-.59.48-1.07,1.07-1.07s1.07.48,1.07,1.07v.61c0,.59-.48,1.07-1.07,1.07Z" style="fill: #00a3a4;"/>
    <path d="M58.64,29.94c-.59,0-1.07-.48-1.07-1.07v-.61c0-.59.48-1.07,1.07-1.07s1.07.48,1.07,1.07v.61c0,.59-.48,1.07-1.07,1.07Z" style="fill: #00a3a4;"/>
    <path d="M61.64,34.33c-.59,0-1.07-.48-1.07-1.07v-.61c0-.59.48-1.07,1.07-1.07s1.07.48,1.07,1.07v.61c0,.59-.48,1.07-1.07,1.07Z" style="fill: #00a3a4;"/>
    <path d="M52.3,75.07c-.59,0-1.07-.48-1.07-1.07v-.61c0-.59.48-1.07,1.07-1.07s1.07.48,1.07,1.07v.61c0,.59-.48,1.07-1.07,1.07Z" style="fill: #00a3a4;"/>
    <path d="M59.22,72.66c-.59,0-1.07-.48-1.07-1.07v-.61c0-.59.48-1.07,1.07-1.07s1.07.48,1.07,1.07v.61c0,.59-.48,1.07-1.07,1.07Z" style="fill: #00a3a4;"/>
    <path d="M7.99,32.64c-.59,0-1.07-.48-1.07-1.07v-.61c0-.59.48-1.07,1.07-1.07s1.07.48,1.07,1.07v.61c0,.59-.48,1.07-1.07,1.07Z" style="fill: #00a3a4;"/>
    <path d="M11.6,72.36c-.59,0-1.07-.48-1.07-1.07v-.61c0-.59.48-1.07,1.07-1.07s1.07.48,1.07,1.07v.61c0,.59-.48,1.07-1.07,1.07Z" style="fill: #00a3a4;"/>
    <path d="M18.45,75.39c-.59,0-1.07-.48-1.07-1.07v-.61c0-.59.48-1.07,1.07-1.07s1.07.48,1.07,1.07v.61c0,.59-.48,1.07-1.07,1.07Z" style="fill: #00a3a4;"/>
  </g>
  <g>
    <path d="M34.05,14.82c-.43,0-.78-.35-.78-.78,0-.66-.54-1.2-1.2-1.2s-1.2.54-1.2,1.2c0,.43-.35.78-.78.78s-.78-.35-.78-.78c0-1.52,1.23-2.75,2.75-2.75s2.75,1.23,2.75,2.75c0,.43-.35.78-.78.78Z" style="fill: #00a3a4;"/>
    <path d="M34.05,14.99c-.52,0-.94-.42-.94-.94,0-.57-.46-1.03-1.03-1.03s-1.03.46-1.03,1.03c0,.52-.42.94-.94.94s-.94-.42-.94-.94c0-1.61,1.31-2.92,2.92-2.92s2.92,1.31,2.92,2.92c0,.52-.42.94-.94.94ZM32.08,12.69c.75,0,1.36.61,1.36,1.36,0,.34.27.61.61.61s.61-.27.61-.61c0-1.43-1.16-2.58-2.58-2.58s-2.58,1.16-2.58,2.58c0,.34.27.61.61.61s.61-.27.61-.61c0-.75.61-1.36,1.36-1.36Z" style="fill: #00a3a4;"/>
  </g>
  <g>
    <path d="M40.59,14.82c-.43,0-.78-.35-.78-.78,0-.66-.54-1.2-1.2-1.2s-1.2.54-1.2,1.2c0,.43-.35.78-.78.78s-.78-.35-.78-.78c0-1.52,1.23-2.75,2.75-2.75s2.75,1.23,2.75,2.75c0,.43-.35.78-.78.78Z" style="fill: #00a3a4;"/>
    <path d="M40.59,14.99c-.52,0-.94-.42-.94-.94,0-.57-.46-1.03-1.03-1.03s-1.03.46-1.03,1.03c0,.52-.42.94-.94.94s-.94-.42-.94-.94c0-1.61,1.31-2.92,2.92-2.92s2.92,1.31,2.92,2.92c0,.52-.42.94-.94.94ZM38.62,12.69c.75,0,1.36.61,1.36,1.36,0,.34.27.61.61.61s.61-.27.61-.61c0-1.43-1.16-2.58-2.58-2.58s-2.58,1.16-2.58,2.58c0,.34.27.61.61.61s.61-.27.61-.61c0-.75.61-1.36,1.36-1.36Z" style="fill: #00a3a4;"/>
  </g>
  <g>
    <path d="M35.48,21.06c-1.41,0-2.78-.28-4.06-.84-1.24-.54-2.35-1.31-3.29-2.29-.3-.31-.29-.8.02-1.1.31-.3.8-.29,1.1.02.8.83,1.73,1.49,2.79,1.94,1.09.47,2.25.71,3.44.71s2.36-.24,3.44-.71c1.05-.46,1.99-1.11,2.79-1.94.3-.31.79-.32,1.1-.02.31.3.32.79.02,1.1-.94.98-2.05,1.75-3.29,2.29-1.29.56-2.65.84-4.07.84Z" style="fill: #00a3a4;"/>
    <path d="M35.48,21.23c-1.44,0-2.83-.29-4.13-.86-1.26-.55-2.38-1.33-3.34-2.33-.17-.18-.27-.42-.26-.67,0-.25.11-.49.29-.66.18-.17.42-.27.67-.26.25,0,.49.11.66.29.78.82,1.7,1.46,2.73,1.91,1.07.46,2.2.7,3.38.7s2.31-.24,3.38-.7c1.03-.45,1.95-1.09,2.73-1.91.17-.18.41-.28.66-.29.25,0,.49.09.67.26.18.17.28.41.29.66,0,.25-.09.49-.26.67-.96,1-2.08,1.78-3.34,2.33-1.31.57-2.7.86-4.13.86ZM28.69,16.77c-.16,0-.31.06-.42.17-.12.11-.18.27-.19.43,0,.16.06.32.17.44.92.96,2.01,1.72,3.23,2.26,1.26.55,2.61.83,4,.83s2.74-.28,4-.83c1.22-.53,2.31-1.29,3.23-2.26.11-.12.17-.27.17-.44,0-.16-.07-.32-.19-.43-.24-.23-.63-.23-.87.02-.81.85-1.77,1.51-2.84,1.98-1.11.48-2.29.73-3.51.73s-2.4-.24-3.51-.73c-1.07-.47-2.03-1.13-2.84-1.98-.11-.12-.27-.18-.43-.19,0,0,0,0-.01,0Z" style="fill: #00a3a4;"/>
  </g>
</svg>