<?xml version="1.0" encoding="UTF-8"?>
<svg id="uuid-5302cff2-9f64-472b-b570-3bd1ddef2589" data-name="Laag 2" xmlns="http://www.w3.org/2000/svg" xmlns:xlink="http://www.w3.org/1999/xlink" viewBox="0 0 341.68 99.3">
  <defs>
    <linearGradient id="uuid-b9e9df8a-181e-4f3f-8157-efca05a28d54" data-name="Nieuwe verloopstaal 6" x1="18.35" y1="79.38" x2="115.89" y2="23.07" gradientUnits="userSpaceOnUse">
      <stop offset="0" stop-color="#2ea186"/>
      <stop offset="1" stop-color="#0f92db"/>
    </linearGradient>
  </defs>
  <g>
    <g>
      <path d="M148.31,42.53l-.04-20.13-9.98,16.66h-2.52l-9.98-16.4v19.87h-5.38V12.17h4.64l12.06,20.13,11.84-20.13h4.64l.04,30.36h-5.33Z" style="fill: #2c3a66;"/>
      <path d="M184.61,37.81v4.73h-22.77V12.17h22.16v4.73h-16.53v7.89h14.66v4.64h-14.66v8.37h17.13Z" style="fill: #2c3a66;"/>
      <path d="M217.88,12.17v30.36h-4.64l-16.74-20.56v20.56h-5.6V12.17h4.64l16.74,20.56V12.17h5.6Z" style="fill: #2c3a66;"/>
      <path d="M232.2,16.94h-10.06v-4.77h25.76v4.77h-10.06v25.59h-5.64v-25.59Z" style="fill: #2c3a66;"/>
      <path d="M270.32,35.51h-15.18l-2.99,7.03h-5.81l13.66-30.36h5.55l13.71,30.36h-5.9l-3.04-7.03ZM268.46,31.08l-5.73-13.27-5.68,13.27h11.41Z" style="fill: #2c3a66;"/>
      <path d="M283.12,12.17h5.64v25.59h15.87v4.77h-21.51V12.17Z" style="fill: #2c3a66;"/>
    </g>
    <g>
      <path d="M147.65,48.95v15.79h-2.93v-6.77h-8.16v6.77h-2.93v-15.79h2.93v6.52h8.16v-6.52h2.93Z" style="fill: #2c3a66;"/>
      <path d="M167.95,59.16v5.57h-2.93v-5.53l-6.2-10.26h3.13l4.62,7.69,4.67-7.69h2.89l-6.18,10.22Z" style="fill: #2c3a66;"/>
      <path d="M195.4,56.66h2.77v6.29c-1.65,1.33-3.95,2.01-6.18,2.01-4.89,0-8.5-3.41-8.5-8.12s3.61-8.12,8.55-8.12c2.64,0,4.85.88,6.34,2.57l-1.85,1.8c-1.24-1.24-2.66-1.8-4.35-1.8-3.36,0-5.73,2.28-5.73,5.55s2.37,5.55,5.71,5.55c1.13,0,2.23-.23,3.25-.81v-4.92Z" style="fill: #2c3a66;"/>
      <path d="M211.27,48.95h2.93v15.79h-2.93v-15.79Z" style="fill: #2c3a66;"/>
      <path d="M239.56,62.28v2.46h-11.84v-15.79h11.52v2.46h-8.59v4.1h7.62v2.41h-7.62v4.35h8.91Z" style="fill: #2c3a66;"/>
      <path d="M266.1,48.95v15.79h-2.41l-8.7-10.69v10.69h-2.91v-15.79h2.41l8.71,10.69v-10.69h2.91Z" style="fill: #2c3a66;"/>
      <path d="M291.43,62.28v2.46h-11.84v-15.79h11.52v2.46h-8.59v4.1h7.62v2.41h-7.62v4.35h8.91Z" style="fill: #2c3a66;"/>
    </g>
  </g>
  <path d="M93.23,44.86s0,0,0,0c-.59-8.91-8.02-15.98-17.07-15.98-1.15,0-2.29.12-3.41.35-3.78-4.75-9.58-7.66-15.94-7.66-4.99,0-9.73,1.84-13.39,5.03-1.99-.83-4.1-1.25-6.27-1.25-8.41,0-15.35,6.38-16.24,14.56-7.66,1.99-12.96,8.82-12.96,16.79,0,9.57,7.79,17.36,17.36,17.36,3.07,0,6.04-.8,8.66-2.31,3.36,6.17,9.91,10.33,17.37,10.33.83,0,1.65-.05,2.47-.15,2.34,6.25,9.01,10.52,16.68,10.52,8.76,0,16.23-7,17.05-15.61,3.66-.74,7.01-2.74,9.53-5.69,2.75-3.22,4.26-7.31,4.26-11.5,0-6.26-3.02-11.78-8.08-14.78ZM87.53,73.68c-.56-6-4.31-11.32-9.86-13.85-.77-.35-1.68,0-2.03.76s0,1.68.76,2.03c4.95,2.25,8.14,7.21,8.14,12.64,0,7.65-6.44,14.11-14.06,14.11-6.2,0-11.59-3.26-13.63-8.09,4.43-1.28,8.32-4.09,10.95-8.04.47-.7.28-1.66-.43-2.12-.7-.47-1.66-.28-2.12.43-3.11,4.67-8.31,7.46-13.91,7.46-8.84,0-16.17-6.91-16.67-15.73-.05-.84-.77-1.5-1.62-1.44-.84.05-1.49.77-1.44,1.62.11,1.91.49,3.74,1.1,5.47-2.23,1.35-4.77,2.07-7.41,2.07-7.88,0-14.29-6.41-14.29-14.29,0-6.27,3.98-11.68,9.82-13.58.08,2.53.43,5.4,1.75,7.58.29.48.79.74,1.31.74.27,0,.54-.07.79-.22.73-.44.96-1.38.53-2.1-1.19-1.99-1.33-5.19-1.33-7.44,0-7.32,5.96-13.28,13.28-13.28,1.35,0,2.66.2,3.92.59-.76.92-1.44,1.91-2.03,2.96,0,0,0,0,0,0-1.44,2.56-2.3,5.35-2.54,8.29-.07.84.56,1.58,1.4,1.65.04,0,.09,0,.13,0,.79,0,1.46-.61,1.53-1.41.21-2.49.93-4.86,2.16-7.04,0,0,0,0,0,0,3.07-5.45,8.85-8.83,15.1-8.83,7.55,0,14.18,4.83,16.49,12.01.21.65.81,1.06,1.46,1.06.16,0,.31-.02.47-.07.81-.26,1.25-1.12.99-1.93-.42-1.29-.95-2.52-1.59-3.67.51-.06,1.02-.09,1.53-.09,7.75,0,14.05,6.3,14.05,14.05,0,2.55-.69,5.04-1.99,7.21-.43.73-.2,1.67.53,2.1.25.15.52.22.79.22.52,0,1.03-.27,1.32-.75,1.16-1.94,1.92-4.08,2.24-6.31,3.26,2.57,5.17,6.63,5.17,11.17,0,6.6-4.6,12.49-10.72,14.05ZM45.29,47.25c0-2.9,2.36-5.26,5.26-5.26s5.26,2.36,5.26,5.26c0,.85-.69,1.53-1.53,1.53s-1.53-.69-1.53-1.53c0-1.21-.99-2.2-2.2-2.2s-2.2.99-2.2,2.2c0,.85-.69,1.53-1.53,1.53s-1.53-.69-1.53-1.53ZM56.66,47.25c0-2.9,2.36-5.26,5.26-5.26s5.26,2.36,5.26,5.26c0,.85-.69,1.53-1.53,1.53s-1.53-.69-1.53-1.53c0-1.21-.99-2.2-2.2-2.2s-2.2.99-2.2,2.2c0,.85-.69,1.53-1.53,1.53s-1.53-.69-1.53-1.53ZM70.39,52.45c.61.59.63,1.56.05,2.17-3.68,3.84-8.63,5.95-13.95,5.95s-10.27-2.11-13.95-5.95c-.59-.61-.56-1.58.05-2.17.61-.59,1.58-.56,2.17.05,3.1,3.23,7.26,5.01,11.73,5.01s8.64-1.78,11.74-5.01c.59-.61,1.56-.63,2.17-.05ZM94.24,31.73c-1.43,0-2.6,1.16-2.6,2.6s1.16,2.6,2.6,2.6,2.6-1.16,2.6-2.6-1.16-2.6-2.6-2.6ZM94.24,35.9c-.87,0-1.58-.71-1.58-1.58s.71-1.58,1.58-1.58,1.58.71,1.58,1.58-.71,1.58-1.58,1.58ZM99.05,40.34c1.06,0,1.92-.86,1.92-1.92s-.86-1.92-1.92-1.92-1.92.86-1.92,1.92.86,1.92,1.92,1.92ZM99.05,37.53c.49,0,.9.4.9.9s-.4.9-.9.9-.9-.4-.9-.9.4-.9.9-.9ZM96.33,41.45c-.56,0-1.01.45-1.01,1.01s.45,1.01,1.01,1.01,1.01-.45,1.01-1.01-.45-1.01-1.01-1.01ZM96.33,42.8c-.18,0-.33-.15-.33-.33s.15-.33.33-.33.33.15.33.33-.15.33-.33.33ZM94.47,17.29c-.39-1.44-1.58-2.56-3.04-2.86-.28-.06-.45-.33-.4-.6.06-.28.33-.45.6-.4,1.83.38,3.33,1.79,3.82,3.59.07.27-.09.55-.36.63-.04.01-.09.02-.13.02-.23,0-.43-.15-.49-.38ZM101.47,15.79c-1.64,0-3.19.46-4.55,1.33-.57-2.96-3.17-5.2-6.29-5.2-3.54,0-6.41,2.88-6.41,6.41s2.88,6.41,6.41,6.41c.85,0,1.66-.17,2.4-.47.02,4.64,3.8,8.41,8.45,8.41s8.45-3.79,8.45-8.45-3.79-8.45-8.45-8.45ZM85.23,18.33c0-2.97,2.42-5.39,5.39-5.39s5.39,2.42,5.39,5.39-2.42,5.39-5.39,5.39-5.39-2.42-5.39-5.39ZM101.47,31.66c-4.09,0-7.43-3.33-7.43-7.43,0-.17.01-.33.02-.5,1.78-1.14,2.97-3.13,2.97-5.4,0-.02,0-.03,0-.05,1.29-.96,2.82-1.47,4.43-1.47,4.09,0,7.43,3.33,7.43,7.43s-3.33,7.43-7.43,7.43ZM107.43,23.15s-.09.02-.13.02c-.23,0-.43-.15-.49-.38-.54-1.99-2.19-3.55-4.22-3.97-.28-.06-.45-.33-.4-.6.06-.28.33-.45.6-.4,2.4.49,4.36,2.34,5,4.7.07.27-.09.55-.36.63ZM96.58,10.79c.98,0,1.78-.8,1.78-1.78s-.8-1.78-1.78-1.78-1.78.8-1.78,1.78.8,1.78,1.78,1.78ZM96.58,8.25c.42,0,.76.34.76.76s-.34.76-.76.76-.76-.34-.76-.76.34-.76.76-.76ZM105.72,14.49c1.66,0,3.01-1.35,3.01-3.01s-1.35-3.01-3.01-3.01-3.01,1.35-3.01,3.01,1.35,3.01,3.01,3.01ZM105.72,9.49c1.1,0,1.99.89,1.99,1.99s-.89,1.99-1.99,1.99-1.99-.89-1.99-1.99.89-1.99,1.99-1.99Z" style="fill: url(#uuid-b9e9df8a-181e-4f3f-8157-efca05a28d54);"/>
  <g>
    <rect x="119.25" y="75.61" width="184.25" height="49.32" style="fill: none;"/>
    <path d="M161.34,80.85c0,2.77-2.05,4.49-5.37,4.49h-2.85v3.64h-2.34v-12.61h5.19c3.32,0,5.37,1.69,5.37,4.49ZM158.98,80.85c0-1.59-1.06-2.5-3.12-2.5h-2.74v5.01h2.74c2.05,0,3.12-.92,3.12-2.5Z" style="fill: #2c3a66;"/>
    <path d="M166.57,76.37h2.34v10.63h6.6v1.98h-8.94v-12.61Z" style="fill: #2c3a66;"/>
    <path d="M188.51,86.06h-6.31l-1.24,2.92h-2.42l5.68-12.61h2.31l5.69,12.61h-2.45l-1.26-2.92ZM187.74,84.22l-2.38-5.51-2.36,5.51h4.74Z" style="fill: #2c3a66;"/>
    <path d="M198.64,78.35h-4.18v-1.98h10.7v1.98h-4.18v10.63h-2.34v-10.63Z" style="fill: #2c3a66;"/>
    <path d="M212.15,78.33v3.84h6.09v1.98h-6.09v4.83h-2.34v-12.61h9.21v1.96h-6.87Z" style="fill: #2c3a66;"/>
    <path d="M223.12,82.67c0-3.73,2.88-6.49,6.79-6.49s6.79,2.74,6.79,6.49-2.88,6.49-6.79,6.49-6.79-2.76-6.79-6.49ZM234.35,82.67c0-2.58-1.89-4.43-4.43-4.43s-4.43,1.86-4.43,4.43,1.89,4.43,4.43,4.43,4.43-1.86,4.43-4.43Z" style="fill: #2c3a66;"/>
    <path d="M250.33,88.98l-2.58-3.69c-.16.02-.32.02-.49.02h-2.85v3.68h-2.34v-12.61h5.19c3.32,0,5.37,1.69,5.37,4.49,0,1.91-.97,3.32-2.69,3.98l2.9,4.14h-2.52ZM247.16,78.35h-2.74v5.03h2.74c2.05,0,3.12-.94,3.12-2.52s-1.06-2.5-3.12-2.5Z" style="fill: #2c3a66;"/>
    <path d="M269.72,88.98l-.02-8.36-4.14,6.92h-1.05l-4.14-6.81v8.25h-2.23v-12.61h1.93l5.01,8.36,4.92-8.36h1.93l.02,12.61h-2.22Z" style="fill: #2c3a66;"/>
  </g>
  <line x1="120.51" y1="70.39" x2="304.75" y2="70.39" style="fill: #2c3a66; stroke: #2c3a66; stroke-linejoin: round;"/>
  <g>
    <path d="M312.61,9.51c0,1.51-1.2,2.39-3.5,2.39h-4.53V3.14h4.28c2.19,0,3.32.91,3.32,2.28,0,.88-.45,1.55-1.16,1.93.98.31,1.6,1.06,1.6,2.17ZM306.59,4.67v2.06h2.01c.99,0,1.53-.35,1.53-1.04s-.54-1.03-1.53-1.03h-2.01ZM310.57,9.3c0-.74-.56-1.09-1.61-1.09h-2.37v2.17h2.37c1.05,0,1.61-.33,1.61-1.08Z" style="fill: #2c3a66;"/>
    <path d="M320.93,10.27v1.63h-6.78V3.14h6.62v1.63h-4.6v1.9h4.07v1.58h-4.07v2.03h4.77Z" style="fill: #2c3a66;"/>
    <path d="M324.36,4.79h-2.8v-1.65h7.63v1.65h-2.8v7.11h-2.03v-7.11Z" style="fill: #2c3a66;"/>
    <path d="M335.61,10.02h-4.07l-.78,1.88h-2.08l3.9-8.76h2l3.92,8.76h-2.13l-.78-1.88ZM334.97,8.48l-1.39-3.35-1.39,3.35h2.78Z" style="fill: #2c3a66;"/>
  </g>
</svg>